<?xml version="1.0" encoding="UTF-8"?>
<svg id="Layer_1" xmlns="http://www.w3.org/2000/svg" version="1.1" xmlns:xlink="http://www.w3.org/1999/xlink" viewBox="0 0 480 480">
  <!-- Generator: Adobe Illustrator 29.6.0, SVG Export Plug-In . SVG Version: 2.1.1 Build 180)  -->
  <defs>
    <style>
      .st0 {
        fill: #ffadae;
      }

      .st1 {
        fill: #534741;
      }

      .st2 {
        fill: #fff;
      }

      .st3, .st4 {
        fill: none;
      }

      .st5 {
        clip-path: url(#clippath-1);
      }

      .st6 {
        fill: #352f2d;
      }

      .st7 {
        isolation: isolate;
      }

      .st8 {
        fill: #ffc0c3;
      }

      .st9 {
        fill: #c98397;
      }

      .st10 {
        fill: #736357;
      }

      .st4 {
        stroke: #ed6d69;
        stroke-linecap: round;
        stroke-miterlimit: 10;
        stroke-width: 2px;
      }

      .st11 {
        fill: #333;
      }

      .st12 {
        opacity: .9;
      }

      .st13 {
        fill: #ed6d69;
      }

      .st14 {
        fill: url(#linear-gradient);
      }

      .st15 {
        clip-path: url(#clippath);
      }

      .st16 {
        fill: #594c47;
      }
    </style>
    <clipPath id="clippath">
      <rect class="st3" width="480" height="480"/>
    </clipPath>
    <linearGradient id="linear-gradient" x1="407.2" y1="-50.2" x2="72.8" y2="528.9" gradientTransform="translate(0 477.5) scale(1 -1)" gradientUnits="userSpaceOnUse">
      <stop offset="0" stop-color="#8990b1"/>
      <stop offset="1" stop-color="#babacc"/>
    </linearGradient>
    <clipPath id="clippath-1">
      <polygon class="st3" points="162.4 340.3 162.5 308.9 184.7 321.7 184.6 353.1 162.4 340.3"/>
    </clipPath>
  </defs>
  <g class="st15">
    <g id="Layer_2">
      <rect class="st14" y="-9.3" width="480" height="495"/>
    </g>
    <g>
      <path class="st6" d="M153.3,134.7c-31.5,22.8-49.4,77.9-28.5,100,20.8,22.1,6,59.6,34.9,71.3,28.9,11.7,104.9,28.9,147.9,0,43-28.9,71.7-75.3,48.5-125.5-21.1-45.5-27-31.5-42.8-51.5-15.7-20-54.2-48.5-104-28.1-45.7,18.7-24.5,10.8-55.7,33.8h-.2Z"/>
      <path class="st0" d="M230.3,150.4c-44.2,0-86.6,31.5-84.7,124.9,1.7,87.4,9.8,98.7,39.1,106.2,29.4,7.2,89.1-15.1,110.4-47.7,21.3-32.5,38.9-80.4,27.4-126.8-11.5-46.4-53.2-56.6-92.1-56.6h-.2Z"/>
      <path class="st1" d="M219.6,257.9c-.6,0-1.3-.4-1.7-1.1-7.9-11.7-16.4-6.4-17.4-5.7s-2.6.4-3.4-.6c-.9-1.1-.4-2.6.6-3.4,0,0,5.1-3.4,11.5-2.1,4.9.9,8.9,4,12.6,9.4.9,1.1.4,2.6-.6,3.4-.6.4-1.1.4-1.7.4l.2-.2Z"/>
      <path class="st1" d="M167.5,242.1c-.9,0-1.9-.6-2.3-1.5-.4-.9-1.9-3.4-3.8-4-1.1-.4-2.3,0-3.6.6-1.1.6-2.6.4-3.4-.9-.6-1.1-.4-2.6.9-3.4,3.2-1.9,6-1.7,7.7-1.3,4.5,1.5,6.6,6.4,6.8,6.8.4,1.3,0,2.8-1.3,3.2h-1.1l.2.4Z"/>
      <path class="st9" d="M196,371c-14.3-6.2-15.3-14-26-16.4-12.1-2.8-10.8,8.5-19.1-8.7,5.5,24.9,9.4,33.6,27.9,38.3,17.7,4.5,38.3,1.5,63.8-11.3-34.3,8.5-27,6.6-46.4-1.7l-.2-.2Z"/>
      <path class="st6" d="M144.3,236.8c14.3-4.9,35.7-33.4,45.3-28.3,16.2,8.5,18.1,14.5,25.5,28.3,16.2,30.2,42.5,19.8,60.2,25.3,17.7,5.7,9.8,21.5,23,29.8,13.2,8.5,10,17.7,10,17.7,0,0,50.8-79.3,14.5-128.3-31.1-41.9-43.8-73.2-105.7-55.7-75.1,21.1-72.8,111-72.8,111v.2Z"/>
      <path class="st16" d="M230.9,197.2c15.1-25.7,54.5-52.5,84.7-52.3-8.5.4-16.8,3.2-24.5,6.6-23.4,10-44.9,25.3-60.2,45.7h0Z"/>
      <g>
        <g>
          <path class="st10" d="M233.9,300.6c-3,0-6-2.3-7.7-5.1-1.1-1.5-.4-3.6,1.1-4.5,1.5-.9,3.6-.4,4.5,1.1.6,1.1,1.7,1.9,2.1,2.1l63.2-37c1.5-.9,3.6-.4,4.5,1.3.9,1.5.4,3.6-1.3,4.5l-63.2,36.8c-1.1.6-2.1,1.1-3.4,1.1l.2-.2Z"/>
          <path class="st11" d="M270.5,283c-2.3,0-4.5-1.1-5.5-3.2-1.9-3.2-.9-7,2.3-8.9l38.3-22.3c8.3-5.5,19.1-6.2,26.6-1.1,4.7,3.2,11.9,11.1,8.3,28.9-.6,3.6-4,5.7-7.7,5.1s-5.7-4-5.1-7.7c1.5-7.7.4-13.4-2.8-15.5-3-1.9-8.3-1.5-12.3,1.3l-38.5,22.5c-1.1.6-2.1.9-3.2.9h-.4Z"/>
        </g>
        <g class="st12">
          <path class="st2" d="M131.8,238.5l36.6,17.9s-1.3,21.9-8.9,27c-7.4,4.9-18.5-6.2-23.4-15.1-4.9-8.9-4.5-29.8-4.5-29.8h.2Z"/>
          <path class="st1" d="M155.6,286.8c-.9,0-1.9,0-2.8-.4-7.2-1.9-14.7-10.2-18.5-17.2-5.1-9.4-4.7-30-4.7-30.8s.4-1.5,1.3-2.1c.6-.4,1.5-.4,2.3,0l36.6,17.9c.9.4,1.5,1.3,1.3,2.3,0,2.3-1.7,23.4-10,28.9-1.7,1.1-3.4,1.5-5.3,1.5h-.2ZM134.3,242.3c0,6.2.9,18.5,4,24.7,3.4,6.2,10,13.4,15.5,14.7,1.7.4,3.2.2,4.5-.6,4.5-3,7-15.3,7.7-23.4l-31.7-15.3h0Z"/>
        </g>
        <g class="st12">
          <path class="st2" d="M182.6,262.8l49.8,17.4s-1.1,33-16.8,32.8c-15.7-.2-29.6-20.4-31.3-31.3-1.7-10.8-1.9-18.9-1.9-18.9h.2Z"/>
          <path class="st1" d="M216,315.5h-.2c-17.4-.2-31.9-22.1-33.6-33.4-1.7-10.8-1.9-18.9-1.9-19.1,0-.9.4-1.5,1.1-2.1.6-.4,1.5-.6,2.3-.4l49.8,17.4c1.1.4,1.7,1.3,1.7,2.3s-1.3,35.1-18.9,35.1l-.2.2ZM185.4,266.4c.2,3.4.6,8.7,1.7,15.1,1.5,9.8,14.7,28.9,28.9,29.1h0c10.2,0,13.4-19.1,14-28.5l-44.7-15.7h0Z"/>
        </g>
        <path class="st13" d="M179,256.4c-8.7-3.2-22.5,35.3-20,40,2.6,4.7,11.1,7,17.9,6.4,6.8-.6,7-44.7,2.1-46.4Z"/>
        <ellipse class="st1" cx="206.4" cy="276.6" rx="6" ry="8.3"/>
        <ellipse class="st1" cx="160.7" cy="257" rx="6" ry="8.3"/>
      </g>
      <path class="st8" d="M307.5,265.7s10-13.6,21.5-8.1c10.4,5.1,10.2,26.2,3.2,40.8-7,14.5-24.7,15.7-28.7,5.3-4-10.4,2.8-36,4.3-37.9l-.2-.2Z"/>
      <g>
        <path class="st4" d="M328.3,266.2c-9.6,1.5-19.4,12.8-15.5,30.8"/>
        <path class="st4" d="M313.2,280.8s3.8-2.6,11.7-1.3"/>
      </g>
    </g>
  </g>
  <g class="st7">
    <g class="st5">
      <path class="st13" d="M173.6,315.3c-6.1-3.5-11.1,4.3-11.2,13,0,8.7,4.9,14.9,11.1,18.4s11.1,3.1,11.2-5.6-4.9-22.3-11.1-25.8"/>
    </g>
  </g>
</svg>