<?xml version="1.0" encoding="UTF-8"?>
<svg id="Layer_1" xmlns="http://www.w3.org/2000/svg" version="1.1" viewBox="0 0 166 120">
  <!-- Generator: Adobe Illustrator 29.3.1, SVG Export Plug-In . SVG Version: 2.1.0 Build 151)  -->
  <defs>
    <style>
      .st0 {
        fill: #d1d5db;
      }

      .st1 {
        fill: #eaebef;
      }

      .st2 {
        fill: #ef4444;
      }

      .st3 {
        fill: none;
        stroke: #ef4444;
        stroke-linecap: round;
        stroke-miterlimit: 10;
      }

      .st4 {
        fill: #4b5563;
      }

      .st5 {
        fill: #6b7280;
      }

      .st6 {
        fill: #9ca3af;
      }
    </style>
  </defs>
  <rect class="st4" x="91.9" y="71.4" width="20.2" height="48.6"/>
  <rect class="st4" x="53.9" y="71.4" width="20.2" height="48.6" transform="translate(128 191.4) rotate(-180)"/>
  <rect class="st6" x="74.6" y="50.2" width="16.7" height="20.3"/>
  <rect class="st2" x="96.1" y="56.2" width="3" height="16.5"/>
  <rect class="st2" x="66.9" y="56.2" width="3" height="16.5" transform="translate(136.9 128.8) rotate(180)"/>
  <g>
    <g>
      <polygon class="st6" points="94.2 38.7 94.2 120 96.5 120 96.5 37.4 94.2 38.7"/>
      <polygon class="st6" points="99.7 35.5 99.7 120 101.9 120 101.9 34.2 99.7 35.5"/>
      <polygon class="st6" points="105.1 32.2 105.1 120 108.7 120 108.7 45.5 112.1 38.5 108.2 40.7 107.3 33.6 110.4 28.6 105.1 32.2"/>
    </g>
    <g>
      <polygon class="st6" points="71.8 38.7 71.8 120 69.5 120 69.5 37.4 71.8 38.7"/>
      <polygon class="st6" points="66.3 35.5 66.3 120 64.1 120 64.1 34.2 66.3 35.5"/>
      <polygon class="st6" points="60.9 32.2 60.9 120 57.3 120 57.3 45.5 53.9 38.5 57.8 40.7 58.7 33.6 55.6 28.6 60.9 32.2"/>
    </g>
  </g>
  <polygon class="st6" points="118.2 120 110.1 120 110.1 49.8 118.2 51.5 124.9 49.2 120.8 56.8 118.2 58.7 118.2 120"/>
  <polygon class="st6" points="47.8 120 55.9 120 55.9 49.8 47.8 51.5 41.1 49.2 45.2 56.8 47.8 58.7 47.8 120"/>
  <path class="st1" d="M83,68.6h16.1v48.2h-4.3v-30.1c0-6.5-5.3-11.8-11.8-11.8v-6.3"/>
  <path class="st1" d="M83,70v6.3c-6.5,0-11.8,5.3-11.8,11.8v28.7h-4.3v-46.9h16.1"/>
  <polygon class="st1" points="100.8 58.7 94 58.7 94 46.2 100.8 43.5 100.8 58.7"/>
  <polygon class="st1" points="65.2 58.7 72 58.7 72 46.2 65.2 43.5 65.2 58.7"/>
  <polygon class="st0" points="94.9 50.3 91.9 50.3 91.9 35 96.4 32.4 94.9 35 94.9 50.3"/>
  <polygon class="st0" points="71.1 50.3 74.1 50.3 74.1 35 69.6 32.4 71.1 35 71.1 50.3"/>
  <g>
    <polygon class="st0" points="111.2 114.6 107.1 114.6 107.1 54.4 111.2 53.1 111.2 114.6"/>
    <polygon class="st0" points="119.4 120 115.3 120 115.3 57.1 119.4 55.7 119.4 120"/>
    <polygon class="st0" points="127.6 120 123.5 120 123.5 59.7 127.6 58.4 127.6 120"/>
  </g>
  <g>
    <polygon class="st0" points="54.8 114.6 58.9 114.6 58.9 54.4 54.8 53.1 54.8 114.6"/>
    <polygon class="st0" points="46.6 120 50.7 120 50.7 57.1 46.6 55.7 46.6 120"/>
    <polygon class="st0" points="38.4 120 42.5 120 42.5 59.7 38.4 58.4 38.4 120"/>
  </g>
  <rect class="st1" x="73.4" y="30.2" width="19.3" height="19.9"/>
  <polygon class="st2" points="93.7 29.2 72.3 29.2 73.4 30.2 92.6 30.2 93.7 29.2"/>
  <rect class="st2" x="73.4" y="50.2" width="19.3" height="2.1"/>
  <path class="st0" d="M79.2,62.9c0-2.1,1.7-3.8,3.8-3.8v-15.2h-6.7v26h6.7v-3.3c-2.1,0-3.8-1.7-3.8-3.8Z"/>
  <path class="st1" d="M83,41.4v15.2c2.1,0,3.8,1.7,3.8,3.8s-1.7,3.8-3.8,3.8v5.9h6.7v-28.6h-6.7Z"/>
  <g>
    <g>
      <rect class="st1" x="106.7" y="66.4" width="6.3" height="50.5"/>
      <rect class="st1" x="117.9" y="74.9" width="6.3" height="41.9"/>
      <rect class="st1" x="129.1" y="70" width="6.3" height="46.9"/>
    </g>
    <g>
      <rect class="st5" x="106.7" y="116.8" width="6.3" height="3.2"/>
      <rect class="st5" x="117.9" y="116.8" width="6.3" height="3.2"/>
      <rect class="st5" x="129.1" y="116.8" width="6.3" height="3.2"/>
    </g>
  </g>
  <g>
    <g>
      <rect class="st5" x="53" y="116.8" width="6.3" height="3.2" transform="translate(112.3 236.8) rotate(-180)"/>
      <rect class="st5" x="41.8" y="116.8" width="6.3" height="3.2" transform="translate(89.9 236.8) rotate(-180)"/>
      <rect class="st5" x="30.6" y="116.8" width="6.3" height="3.2" transform="translate(67.5 236.8) rotate(-180)"/>
    </g>
    <g>
      <rect class="st1" x="53" y="66.4" width="6.3" height="50.5" transform="translate(112.3 183.2) rotate(-180)"/>
      <rect class="st1" x="41.8" y="66.4" width="6.3" height="50.5" transform="translate(89.9 183.2) rotate(-180)"/>
      <rect class="st1" x="30.6" y="70" width="6.3" height="46.9" transform="translate(67.5 186.8) rotate(-180)"/>
    </g>
  </g>
  <line class="st3" x1="100.8" y1="43.5" x2="94" y2="46.2"/>
  <line class="st3" x1="65.2" y1="43.5" x2="72" y2="46.2"/>
  <rect class="st2" x="83" y="40.3" width="6.7" height="1.1"/>
  <rect class="st2" x="76.3" y="43" width="6.7" height="1.1"/>
  <rect class="st5" x="66.9" y="116.8" width="32.2" height="3.2"/>
  <polyline class="st3" points="110.1 49.8 118.2 51.5 124.9 49.2"/>
  <polyline class="st3" points="55.9 49.8 47.8 51.5 41.1 49.2"/>
</svg>