<?xml version="1.0" encoding="UTF-8"?>
<svg id="Layer_1" xmlns="http://www.w3.org/2000/svg" version="1.1" viewBox="0 0 166 120">
  <!-- Generator: Adobe Illustrator 29.3.1, SVG Export Plug-In . SVG Version: 2.1.0 Build 151)  -->
  <defs>
    <style>
      .st0 {
        fill: #54b2a0;
      }

      .st1 {
        fill: #8e6b3d;
      }

      .st2 {
        fill: #e5bf55;
      }

      .st3 {
        fill: #fce47e;
      }

      .st4 {
        fill: #fff;
      }

      .st5 {
        fill: #9d9d9c;
      }

      .st6 {
        fill: none;
        stroke: #256045;
        stroke-miterlimit: 10;
      }

      .st7 {
        fill: #b2b2a8;
      }

      .st8 {
        fill: #575756;
      }

      .st9 {
        fill: #3d7a4c;
      }

      .st10 {
        fill: #706f6f;
      }

      .st11 {
        fill: #f9f9f9;
      }

      .st12 {
        fill: #333f39;
      }

      .st13 {
        fill: #ba9d9b;
      }

      .st14 {
        fill: #b7605e;
      }

      .st15 {
        fill: #7a7a6d;
      }

      .st16 {
        fill: #878787;
      }

      .st17 {
        fill: #84776b;
      }

      .st18 {
        fill: #2d2d2c;
      }

      .st19 {
        fill: #eace5c;
      }

      .st20 {
        fill: #c6c6c6;
      }

      .st21 {
        fill: #dadada;
      }

      .st22 {
        fill: #a57574;
      }

      .st23 {
        fill: #ededed;
      }

      .st24 {
        fill: #f2d85a;
      }
    </style>
  </defs>
  <g id="Layer_11">
    <g>
      <g>
        <circle class="st19" cx="134.6" cy="27.4" r="1.7"/>
        <circle class="st19" cx="149.8" cy="23.4" r="1.3"/>
        <circle class="st19" cx="139.4" cy="27.4" r=".9"/>
        <circle class="st19" cx="142.9" cy="26.5" r=".9"/>
        <circle class="st19" cx="146.2" cy="25.6" r=".9"/>
        <circle class="st19" cx="31.4" cy="27.4" r="1.8"/>
        <circle class="st19" cx="16.1" cy="23.4" r="1.3"/>
        <circle class="st19" cx="26.5" cy="27.4" r=".9"/>
        <circle class="st19" cx="23.1" cy="26.5" r=".9"/>
        <path class="st19" d="M19.8,24.7c.5,0,.9.4.9.9s-.4.9-.9.9-.9-.4-.9-.9.4-.9.9-.9Z"/>
        <path class="st8" d="M83,38.5c-40.6,0-65.4-7.2-65.4-7.2,0,0,14,15,25.3,19.4h80.2c11.3-4.4,25.3-19.4,25.3-19.4,0,0-24.9,7.2-65.4,7.2h0Z"/>
        <path class="st20" d="M16.9,31.7s.5.3,1.4.7,2.3,1,4.1,1.5c.9.3,1.9.6,3,.9,1.1.2,2.2.6,3.5.8,1.3.3,2.6.6,4,.8.7,0,1.4.2,2.2.4.7,0,1.5.2,2.3.3,1.5.2,3.2.4,4.8.6,1.7.2,3.4.3,5.2.5s3.6.2,5.5.3c.9,0,1.9,0,2.8,0h2.9c3.9.2,7.9,0,12,0h39.7c1,0,1.9,0,2.8,0,1.9,0,3.7-.2,5.5-.3s3.5-.3,5.2-.5,3.3-.3,4.8-.6c.8,0,1.5-.2,2.3-.3.7,0,1.5-.3,2.2-.4,1.4-.2,2.7-.5,4-.8,1.3-.2,2.4-.6,3.5-.8,1.1-.3,2.1-.6,3-.9,1.8-.6,3.2-1.1,4.1-1.5.9-.4,1.4-.7,1.4-.7,0,0-.5.4-1.4,1s-2.3,1.4-4,2.2c-.9.4-1.9.8-2.9,1.3-1.1.4-2.2.9-3.5,1.2-1.2.4-2.6.8-4,1.2s-1.4.4-2.2.6c-.7.2-1.5.3-2.3.5-1.6.4-3.2.7-4.9,1s-3.4.6-5.2.8c-1.8.3-3.6.5-5.5.7s-3.8.3-5.8.5c-2,0-4,.3-6,.3s-4,0-6.1,0h-24.8c-2,0-4.1,0-6.1,0-2,0-4-.2-6-.3-1,0-1.9,0-2.9-.2-1,0-1.9-.2-2.9-.3-1.9-.2-3.7-.4-5.5-.7s-3.5-.5-5.2-.8-3.3-.6-4.9-1c-.8-.2-1.5-.3-2.3-.5-.7-.2-1.5-.4-2.2-.6-1.4-.4-2.7-.8-4-1.2s-2.4-.8-3.5-1.2c-1.1-.5-2-.8-2.9-1.3-1.8-.8-3.1-1.6-4-2.2s-1.4-1-1.4-1h.2,0Z"/>
        <path class="st0" d="M83,26.1h-28c-10,5.7-19.2,7.7-43.2-1.3,0,0,4.6,16.2,44.5,16.2h53.4c39.9,0,44.5-16.2,44.5-16.2-24,9.1-33.1,7-43.2,1.3h-28"/>
        <polygon class="st0" points="109.3 16.1 83 16.1 56.7 16.1 51.6 38.7 83 38.7 114.4 38.7 109.3 16.1"/>
        <path class="st24" d="M152.2,25.3c-10,7.4-35.1,7.9-43.4,1.8v-1.5c6.3,3.9,30.7,7.5,43.7-2.4l-.3,2.2h0Z"/>
        <path class="st24" d="M13.8,25.3c10,7.4,35.1,7.9,43.4,1.8v-1.5c-6.3,3.9-30.7,7.5-43.7-2.4l.3,2.2h0Z"/>
        <g>
          <polygon class="st3" points="110.5 28.4 110.9 33.8 108.1 33.8 106 17 106 13.6 106.9 13.6 110.5 28.4"/>
          <polygon class="st24" points="110.5 28.4 110.9 33.8 108.1 33.8 109.1 28.4 110.5 28.4"/>
          <polygon class="st2" points="106 13.6 109.1 28.4 108.1 33.8 106 17 106 13.6"/>
        </g>
        <g>
          <polygon class="st3" points="55.5 28.4 55.1 33.8 57.8 33.8 60 17 60 13.6 59 13.6 55.5 28.4"/>
          <polygon class="st24" points="55.5 28.4 55.1 33.8 57.8 33.8 56.9 28.4 55.5 28.4"/>
          <polygon class="st2" points="60 13.6 56.9 28.4 57.8 33.8 60 17 60 13.6"/>
        </g>
        <polygon class="st24" points="83 13.2 59.8 13.2 59.8 16.4 83 16.4 106.1 16.4 106.1 13.2 83 13.2"/>
        <polygon class="st2" points="83 14.5 59.8 14.5 59.8 15.2 83 15.2 106.1 15.2 106.1 14.5 83 14.5"/>
        <path class="st19" d="M103.2,10.9h-2s-2-1.5-2-5,.7-2.4,2-2.4,2.1,1,2.1,2-.5,1.5-1,1.7c0,0,.7,1.8,2.2,1.8s0-4.1,1.7-4.1,1,1.6,1,2.4.8,2.3.8,3.7-1.5,3.1-1.5,4.5c0,0-1-1.5-3-1.5s-2-1.2-2-1.2c0,0,1.6.2,1.6-1.8h.1Z"/>
        <path class="st19" d="M62.7,10.9h2s2-1.5,2-5-.7-2.4-2-2.4-2.1,1-2.1,2,.5,1.5,1,1.7c0,0-.7,1.8-2.2,1.8s0-4.1-1.7-4.1-1,1.6-1,2.4-.8,2.3-.8,3.7,1.5,3.1,1.5,4.5c0,0,1-1.5,3-1.5s2-1.2,2-1.2c0,0-1.6.2-1.6-1.8h-.1Z"/>
      </g>
      <g>
        <rect class="st17" x="41" y="46.7" width="84" height="31.4"/>
        <rect class="st18" x="76.1" y="55.2" width="13.8" height="22.9"/>
        <rect class="st14" x="96.7" y="49.5" width="3" height="25"/>
        <rect class="st12" x="96.7" y="44.3" width="3" height="5.2"/>
        <g>
          <rect class="st14" x="110.2" y="49.5" width="3" height="25"/>
          <rect class="st12" x="110.2" y="44.3" width="3" height="5.2"/>
        </g>
        <g>
          <rect class="st14" x="123.6" y="49.5" width="3" height="25"/>
          <rect class="st12" x="123.6" y="44.3" width="3" height="5.2"/>
        </g>
        <g>
          <rect class="st21" x="113.2" y="44.3" width="10.4" height="5.2"/>
          <g>
            <polygon class="st6" points="116.5 49.5 120.1 49.5 122.1 46.9 120.1 44.4 116.5 44.4 114.5 46.9 116.5 49.5"/>
            <polygon class="st1" points="119.4 48.1 120.3 46.9 119.4 45.8 117.2 45.8 116.3 46.9 117.2 48.1 119.4 48.1"/>
          </g>
        </g>
        <polygon class="st13" points="119.1 49.5 121.7 49.5 123.6 49.5 123.6 51.5 123.6 53.2 121.7 53.2 121.7 51.5 119.1 51.5 119.1 49.5"/>
        <polygon class="st13" points="117.5 49.5 114.9 49.5 113.3 49.5 113.3 53.2 114.9 53.2 114.9 51.5 117.5 51.5 117.5 49.5"/>
        <g>
          <rect class="st21" x="99.9" y="44.3" width="10.4" height="5.2"/>
          <g>
            <polygon class="st6" points="103.2 49.5 106.7 49.5 108.7 46.9 106.7 44.4 103.2 44.4 101.2 46.9 103.2 49.5"/>
            <polygon class="st1" points="106.1 48.1 107 46.9 106.1 45.8 103.9 45.8 103 46.9 103.9 48.1 106.1 48.1"/>
          </g>
        </g>
        <polygon class="st13" points="105.8 49.5 108.3 49.5 110.3 49.5 110.3 51.5 110.3 53.2 108.3 53.2 108.3 51.5 105.8 51.5 105.8 49.5"/>
        <polygon class="st13" points="104.1 49.5 101.6 49.5 99.8 49.5 99.8 53.2 101.6 53.2 101.6 51.5 104.1 51.5 104.1 49.5"/>
        <rect class="st14" x="66.3" y="49.5" width="3" height="25"/>
        <rect class="st12" x="66.3" y="44.4" width="3" height="5.2"/>
        <g>
          <rect class="st14" x="52.7" y="49.5" width="3" height="25"/>
          <rect class="st12" x="52.7" y="44.4" width="3" height="5.2"/>
        </g>
        <g>
          <rect class="st14" x="39.3" y="49.5" width="3" height="25"/>
          <rect class="st12" x="39.3" y="44.4" width="3" height="5.2"/>
        </g>
        <g>
          <rect class="st21" x="42.3" y="44.4" width="10.4" height="5.2"/>
          <g>
            <polygon class="st6" points="49.4 49.5 45.9 49.5 43.9 46.9 45.9 44.4 49.4 44.4 51.4 46.9 49.4 49.5"/>
            <polygon class="st1" points="46.5 48.1 45.6 46.9 46.5 45.8 48.7 45.8 49.6 46.9 48.7 48.1 46.5 48.1"/>
          </g>
        </g>
        <polygon class="st13" points="46.8 49.5 44.3 49.5 42.3 49.5 42.3 51.5 42.3 53.2 44.3 53.2 44.3 51.5 46.8 51.5 46.8 49.5"/>
        <polygon class="st13" points="48.5 49.5 51 49.5 52.7 49.5 52.7 53.2 51 53.2 51 51.5 48.5 51.5 48.5 49.5"/>
        <g>
          <rect class="st21" x="55.7" y="44.4" width="10.4" height="5.2"/>
          <g>
            <polygon class="st6" points="62.8 49.5 59.2 49.5 57.2 46.9 59.2 44.4 62.8 44.4 64.8 46.9 62.8 49.5"/>
            <polygon class="st1" points="59.9 48.1 59 46.9 59.9 45.8 62.1 45.8 63 46.9 62.1 48.1 59.9 48.1"/>
          </g>
        </g>
        <polygon class="st13" points="60.2 49.5 57.6 49.5 55.7 49.5 55.7 51.5 55.7 53.2 57.6 53.2 57.6 51.5 60.2 51.5 60.2 49.5"/>
        <polygon class="st13" points="61.8 49.5 64.4 49.5 66.1 49.5 66.1 53.2 64.4 53.2 64.4 51.5 61.8 51.5 61.8 49.5"/>
        <g>
          <rect class="st21" x="69.3" y="44.4" width="27.4" height="5.2"/>
          <polygon class="st6" points="91.8 49.5 74.2 49.5 72.2 46.9 74.2 44.4 91.8 44.4 93.8 46.9 91.8 49.5"/>
          <polygon class="st6" points="87.8 49.5 78.2 49.5 76.2 46.9 78.2 44.4 87.8 44.4 89.8 46.9 87.8 49.5"/>
          <polygon class="st1" points="78.9 48.1 78 46.9 78.9 45.8 87.1 45.8 88 46.9 87.1 48.1 78.9 48.1"/>
        </g>
        <polygon class="st13" points="73.8 49.5 71.2 49.5 69.3 49.5 69.3 51.5 69.3 53.2 71.2 53.2 71.2 51.5 73.8 51.5 73.8 49.5"/>
        <polygon class="st13" points="92.2 49.5 94.7 49.5 96.7 49.5 96.7 51.5 96.7 53.2 94.7 53.2 94.7 51.5 92.2 51.5 92.2 49.5"/>
      </g>
      <g>
        <rect class="st4" x="84.2" y="70.7" width="40.5" height="3.9"/>
        <path class="st4" d="M126.6,66.9h-1.9v7.6h11.9v-11.4h-8.1v1.9h-1.9s0,1.9,0,1.9ZM130.3,66.9h3.8v1.9h-3.8v-1.9Z"/>
        <path class="st4" d="M109.2,66.9v7.6h13.2v-7.6h-1.9v-1.9h-1.9v-1.9h-5.6v1.9h-1.9v1.9h-1.9,0ZM113.9,66.9h3.7v1.9h-3.7v-1.9Z"/>
        <path class="st4" d="M92.9,66.9v7.6h13.2v-7.6h-1.9v-1.9h-1.9v-1.9h-5.6v1.9h-1.9v1.9h-1.9,0ZM97.6,66.9h3.7v1.9h-3.7v-1.9Z"/>
      </g>
      <g>
        <rect class="st4" x="41.3" y="70.6" width="40.5" height="3.9"/>
        <path class="st4" d="M39.4,65h-1.9v-1.9h-8.1v11.4h11.9v-7.6h-1.9v-1.9ZM35.6,68.8h-3.8v-1.9h3.8v1.9Z"/>
        <path class="st4" d="M54.9,66.9v-1.9h-1.9v-1.9h-5.6v1.9h-1.9v1.9h-1.9v7.6h13.2v-7.6h-1.9,0ZM52,68.8h-3.7v-1.9h3.7v1.9Z"/>
        <path class="st4" d="M71.2,66.9v-1.9h-1.9v-1.9h-5.6v1.9h-1.9v1.9h-1.9v7.6h13.2v-7.6h-1.9,0ZM68.4,68.8h-3.7v-1.9h3.7v1.9Z"/>
      </g>
      <g>
        <rect class="st7" x="29.1" y="78.4" width="107.7" height="41.6"/>
        <rect class="st15" x="29.1" y="78.4" width="107.7" height="3.1"/>
        <rect class="st11" x="27" y="74.5" width="111.9" height="3.9"/>
        <path class="st10" d="M83,83.7c-9.7,0-17.6,7.9-17.6,17.6v18.7h35.1v-18.7c0-9.7-7.9-17.6-17.6-17.6h0Z"/>
        <path class="st18" d="M83,87.1c-7.8,0-14.2,6.3-14.2,14.2v18.7h28.3v-18.7c0-7.8-6.3-14.2-14.2-14.2,0,0,0,0,0,0Z"/>
        <path class="st9" d="M103.1,120h8.7c1.9-1.4,3.2-2.6,3.2-5.2,0-4.2-2.5-7.1-7.6-7.1s-7.6,2.9-7.6,7.1,1.3,3.8,3.2,5.2h.1Z"/>
        <path class="st9" d="M62.8,120h-8.7c-1.9-1.4-3.2-2.6-3.2-5.2,0-4.2,2.5-7.1,7.6-7.1s7.6,2.9,7.6,7.1-1.3,3.8-3.2,5.2h0Z"/>
      </g>
      <g>
        <rect class="st4" x="69.6" y="62.3" width="26.8" height="12.4"/>
        <rect class="st22" x="70.4" y="63.1" width="25.1" height="9.8"/>
        <rect class="st23" x="73" y="65.1" width="20" height="5.9"/>
      </g>
    </g>
    <g>
      <rect class="st5" x="59.2" y="111.2" width="47.5" height="2.2"/>
      <rect class="st16" x="65.4" y="108.9" width="35.2" height="2.2"/>
      <rect class="st10" x="60.3" y="113.4" width="45.3" height="2.2"/>
      <rect class="st16" x="59.1" y="115.7" width="47.8" height="4.3"/>
      <g>
        <path class="st9" d="M77.6,107.1c0,1.9-2.9,2.3-6.4,2.3s-6.4-.5-6.4-2.3,1.8-6.2,6.4-6.2,6.4,4.3,6.4,6.2Z"/>
        <path class="st9" d="M82.3,107.1c0,1.9-2.9,2.3-6.4,2.3s-6.4-.5-6.4-2.3,1.8-6.2,6.4-6.2,6.4,4.3,6.4,6.2Z"/>
        <path class="st9" d="M87,107.1c0,1.9-2.9,2.3-6.4,2.3s-6.4-.5-6.4-2.3,1.8-6.2,6.4-6.2,6.4,4.3,6.4,6.2Z"/>
        <path class="st9" d="M91.8,107.1c0,1.9-2.9,2.3-6.4,2.3s-6.4-.5-6.4-2.3,1.8-6.2,6.4-6.2,6.4,4.3,6.4,6.2Z"/>
        <path class="st9" d="M96.5,107.1c0,1.9-2.9,2.3-6.4,2.3s-6.4-.5-6.4-2.3,1.8-6.2,6.4-6.2,6.4,4.3,6.4,6.2Z"/>
        <path class="st9" d="M101.2,107.1c0,1.9-2.9,2.3-6.4,2.3s-6.4-.5-6.4-2.3,1.8-6.2,6.4-6.2,6.4,4.3,6.4,6.2Z"/>
      </g>
    </g>
    <g>
      <rect class="st5" x="59.2" y="111.2" width="47.5" height="2.2"/>
      <rect class="st16" x="65.3" y="109" width="35.2" height="2.2"/>
      <rect class="st10" x="60.3" y="113.5" width="45.3" height="2.2"/>
      <rect class="st16" x="59" y="115.7" width="47.8" height="4.3"/>
      <g>
        <path class="st9" d="M88.4,107.1c0,1.9,2.9,2.3,6.4,2.3s6.4-.5,6.4-2.3-1.8-6.2-6.4-6.2-6.4,4.3-6.4,6.2Z"/>
        <path class="st9" d="M83.7,107.1c0,1.9,2.9,2.3,6.4,2.3s6.4-.5,6.4-2.3-1.8-6.2-6.4-6.2-6.4,4.3-6.4,6.2Z"/>
        <path class="st9" d="M78.9,107.1c0,1.9,2.9,2.3,6.4,2.3s6.4-.5,6.4-2.3-1.8-6.2-6.4-6.2-6.4,4.3-6.4,6.2Z"/>
        <path class="st9" d="M74.2,107.1c0,1.9,2.9,2.3,6.4,2.3s6.4-.5,6.4-2.3-1.8-6.2-6.4-6.2-6.4,4.3-6.4,6.2Z"/>
        <path class="st9" d="M69.5,107.1c0,1.9,2.9,2.3,6.4,2.3s6.4-.5,6.4-2.3-1.8-6.2-6.4-6.2-6.4,4.3-6.4,6.2Z"/>
        <path class="st9" d="M64.7,107.1c0,1.9,2.9,2.3,6.4,2.3s6.4-.5,6.4-2.3-1.8-6.2-6.4-6.2-6.4,4.3-6.4,6.2Z"/>
      </g>
    </g>
  </g>
</svg>