<?xml version="1.0" encoding="UTF-8"?>
<svg id="Layer_1" xmlns="http://www.w3.org/2000/svg" version="1.1" viewBox="0 0 166 120">
  <!-- Generator: Adobe Illustrator 29.3.1, SVG Export Plug-In . SVG Version: 2.1.0 Build 151)  -->
  <defs>
    <style>
      .st0 {
        fill: #9d9d9c;
      }

      .st1 {
        fill: none;
      }

      .st2 {
        fill: #575756;
      }

      .st3 {
        fill: #b2b2b2;
      }

      .st4 {
        fill: #706f6f;
      }

      .st5 {
        fill: #b7605e;
      }

      .st6 {
        fill: #878787;
      }

      .st7 {
        fill: #1d1d1b;
      }

      .st8 {
        fill: #2d2d2c;
      }

      .st9 {
        fill: #969695;
      }

      .st10 {
        fill: #e5cdbd;
      }

      .st11 {
        fill: #c6c6c6;
      }

      .st12 {
        fill: #3c3c3b;
      }

      .st13 {
        fill: #a57574;
      }

      .st14 {
        fill: #7a4040;
      }
    </style>
  </defs>
  <g id="Layer_11">
    <g>
      <rect class="st5" x="13.2" y="31.3" width="139.7" height="88.7"/>
      <rect class="st9" x="13.2" y="78.4" width="139.7" height="41.6"/>
      <g>
        <circle class="st1" cx="83" cy="59" r="5.9"/>
        <circle class="st7" cx="82.3" cy="59.7" r="6.9"/>
        <circle class="st13" cx="83" cy="59" r="6.9"/>
        <path class="st8" d="M83,53.6v10.9c3,0,5.4-2.4,5.4-5.4s-2.4-5.4-5.4-5.4h0Z"/>
        <path class="st2" d="M83,53.6v10.9c-3,0-5.4-2.4-5.4-5.4s2.4-5.4,5.4-5.4h0Z"/>
      </g>
      <g>
        <rect class="st13" x="111.9" y="53.1" width="11.4" height="13.6"/>
        <rect class="st8" x="113.6" y="53.1" width="8.1" height="11.9"/>
        <rect class="st2" x="113.6" y="53.1" width="3.7" height="11.9"/>
        <rect class="st6" x="111.9" y="64.9" width="11.4" height="1.7"/>
        <rect class="st6" x="113.6" y="53.1" width="8.1" height="1.7"/>
      </g>
      <path class="st2" d="M58.7,120v-14c0-12.9,10.5-23.3,23.3-23.3s23.3,10.5,23.3,23.3v14h-46.6Z"/>
      <path class="st4" d="M83,83.7c-11.9,0-21.6,9.7-21.6,21.6v14.7h43.2v-14.7c0-11.9-9.7-21.6-21.6-21.6Z"/>
      <path class="st8" d="M83,87.9c-9.6,0-17.4,7.8-17.4,17.4v14.7h34.8v-14.7c0-9.6-7.8-17.4-17.4-17.4Z"/>
      <g>
        <rect class="st13" x="42.7" y="53.1" width="11.4" height="13.6"/>
        <rect class="st8" x="44.3" y="53" width="8.1" height="11.9"/>
        <rect class="st2" x="44.3" y="53" width="4.2" height="11.9"/>
        <rect class="st6" x="42.7" y="65" width="11.4" height="1.7"/>
        <rect class="st6" x="44.3" y="53.1" width="8.1" height="1.7"/>
      </g>
      <g>
        <path class="st7" d="M152.9,31.3h-.2c-.9.3-1.9.7-3.2,1.1-1,.3-2.1.6-3.2.9-1.2.2-2.5.6-3.8.8-1.4.3-2.8.6-4.4.8-.8,0-1.6.3-2.4.4-.8,0-1.6.2-2.5.3-1.7.2-3.5.4-5.3.6-1.8.2-3.7.3-5.7.5s-4,.2-6,.3c-1,0-2.1,0-3.1,0h-3.2c-4.2.2-8.7,0-13.2,0h-43.6c-1,0-2.1,0-3.1,0-2.1,0-4.1-.2-6-.3-2,0-3.9-.3-5.7-.5s-3.6-.3-5.3-.6c-.9,0-1.7-.2-2.5-.3s-1.6-.3-2.4-.4c-1.6-.2-3-.5-4.4-.8-1.4-.2-2.7-.6-3.8-.8-1.2-.3-2.3-.6-3.2-.9-1.3-.4-2.3-.7-3.2-1.1h-.2v.4c.9.5,1.9,1,3.2,1.5,1,.4,2,.8,3.2,1.3,1.2.4,2.5.9,3.8,1.2,1.4.4,18.3,3,20.3,3.3s4,.5,6.1.7c1,0,2.1.2,3.1.3,1.1,0,2.1,0,3.2.2,2.1,0,4.3.3,6.5.3s4.5.2,6.7,0h27.2c2.3,0,4.5,0,6.7,0,2.2,0,4.4-.2,6.5-.3,2.2,0,4.3-.2,6.3-.5,2.1-.2,4.1-.4,6.1-.7s18.9-2.9,20.3-3.3c1.4-.4,2.6-.9,3.8-1.2,1.2-.5,2.2-.8,3.2-1.3,1.3-.5,2.4-1.1,3.2-1.5v-.4h.2,0Z"/>
        <path class="st10" d="M10.5,30.2s.5.2,1.6.6c1,.3,2.6.7,4.5,1.2,1,.2,2.1.4,3.2.7,1.2.2,2.5.5,3.8.6,1.4.2,2.8.4,4.4.6.8,0,1.6.2,2.4.3.8,0,1.6.2,2.5.2,1.7.2,3.5.3,5.3.4,1.8,0,3.7.3,5.7.4,2,0,4,.2,6,.2s2.1,0,3.1,0h3.2c4.3,0,8.7,0,13.2,0h43.6c1,0,2.1,0,3.1,0,2.1,0,4.1,0,6-.2,2,0,3.9-.2,5.7-.4,1.8,0,3.6-.3,5.3-.4.9,0,1.7-.2,2.5-.2s1.6-.2,2.4-.3c1.6-.2,3-.4,4.4-.6,1.4-.2,2.7-.5,3.8-.6,1.2-.2,2.3-.4,3.2-.7,2-.4,3.5-.9,4.5-1.2s1.6-.6,1.6-.6c0,0-.5.3-1.5.7s-2.5,1.1-4.4,1.7c-1,.3-2,.6-3.2,1-1.2.3-2.5.7-3.8,1-1.4.3-2.8.6-4.4.9-.8,0-1.6.3-2.4.4-.8,0-1.6.3-2.5.4-1.7.3-3.5.5-5.3.8s-3.8.4-5.7.6c-2,.2-4,.4-6.1.5-2.1.2-4.2.3-6.3.4-2.2,0-4.3.2-6.5.2s-4.4,0-6.7,0h-27.2c-2.2,0-4.5,0-6.7,0-2.2,0-4.4,0-6.5-.2-1.1,0-2.1,0-3.2,0-1.1,0-2.1,0-3.1-.2-2.1-.2-4.1-.3-6.1-.5s-3.9-.4-5.7-.6c-1.8-.2-3.6-.5-5.3-.8-.9,0-1.7-.3-2.5-.4-.8-.2-1.6-.3-2.4-.4-1.5-.3-3-.6-4.4-.9-1.4-.3-2.6-.6-3.8-1-1.2-.3-2.2-.6-3.2-1-1.9-.6-3.4-1.2-4.4-1.7s-1.5-.7-1.5-.7h-.2Z"/>
        <path class="st14" d="M125.3,26.4l-2.1-8.7-18.8,5.2-1.1-7.3s-6.1,2.1-20.4,2.1-20.4-2.1-20.4-2.1l-1.1,7.3-18.8-5.2-2.1,8.7s-12.6,5.3-30.3,3.7c0,0,11,6.8,50.9,6.8h43.4c39.9,0,50.9-6.8,50.9-6.8-17.7,1.6-30.3-3.7-30.3-3.7h.2,0Z"/>
        <path class="st7" d="M103.4,15.6s-6.1,2.1-20.4,2.1-20.4-2.1-20.4-2.1l-.3,2.3c2.9,1.7,8.9,3.9,20.7,3.9s17.8-2.2,20.7-3.9l-.3-2.3h0Z"/>
        <path class="st7" d="M123.2,17.7l-6.4,1.8c-3.1,1.3-6.4,2.3-9.7,2.7l-2.7.8v-.5h-1.2v3c11.2,0,17.5-2.9,20.6-4.9l-.7-2.8h0,0Z"/>
        <path class="st11" d="M103.3,23.4c17.3,0,23.1-6.9,23.1-6.9v-2c2.7-3.7,3.4-8.5,3.4-8.5-3.2,8.2-15.3,14.5-26.5,14.5v3h0Z"/>
        <path class="st11" d="M83,20.4c-18.9,0-23.1-5.7-23.1-5.7v-2.6c-2.7-3.7-3.4-8.5-3.4-8.5,3.2,8.2,9.8,12.1,26.5,12.1s23.2-3.9,26.5-12.1c0,0-.7,4.9-3.4,8.5v2.6s-4.2,5.7-23.1,5.7Z"/>
        <path class="st7" d="M61.6,22.9l-2.7-.8c-3.3-.4-6.7-1.4-9.7-2.7l-6.4-1.8-.7,2.8c3.1,2,9.4,4.9,20.6,4.9v-3h-1.1v.5h0Z"/>
        <path class="st11" d="M62.8,23.4c-17.3,0-23.1-6.9-23.1-6.9v-2c-2.7-3.7-3.4-8.5-3.4-8.5,3.2,8.2,15.3,14.5,26.5,14.5v3h0Z"/>
        <path class="st7" d="M126.8,26.9h0v.5c4.2,1.4,10.7,4.7,25.3,4.1,1-.4,1.8-.7,2.4-.9.2-.2.3-.3.5-.5-13.8,1.1-24.3-1.9-28.1-3.2h0Z"/>
        <path class="st11" d="M126.8,26.9c15.7,3.6,23.3,1.7,26.6.4s4.5-4.8,4.5-4.8c0,0-1.3,6.1-4.5,8-15.4.8-22.3-1.6-26.6-3v-.5h0Z"/>
        <path class="st7" d="M39.2,27.4v-.5h0c-3.8,1.3-14.3,4.3-28.1,3.2.2.2.3.4.5.5.6.2,1.3.6,2.4.9,14.5.6,21.1-2.7,25.3-4.1h0Z"/>
        <path class="st11" d="M39.2,26.9c-15.7,3.6-23.3,1.7-26.6.4s-4.6-4.8-4.6-4.8c0,0,1.3,6.1,4.5,8,15.4.8,22.3-1.6,26.6-3v-.5h.1Z"/>
        <g>
          <polygon class="st11" points="127.8 26.2 128.2 30.9 125.4 30.9 122.7 18.8 122.7 15.9 123.5 15.9 127.8 26.2"/>
          <polygon class="st3" points="127.8 26.2 128.2 30.9 125.4 30.9 126.1 26.2 127.8 26.2"/>
          <polygon class="st0" points="122.7 15.9 126.1 26.2 125.4 30.9 122.7 18.8 122.7 15.9"/>
        </g>
        <g>
          <polygon class="st11" points="106.6 27.9 107 33.3 103.6 33.3 102.9 17 102.9 13.6 103.9 13.6 106.6 27.9"/>
          <polygon class="st3" points="106.6 27.9 107 33.3 103.6 33.3 105 27.9 106.6 27.9"/>
          <polygon class="st0" points="102.9 13.6 105 27.9 103.6 33.3 102.9 17 102.9 13.6"/>
        </g>
        <g>
          <polygon class="st11" points="38.2 26.2 37.9 30.9 40.6 30.9 43.4 18.8 43.4 15.9 42.5 15.9 38.2 26.2"/>
          <polygon class="st3" points="38.2 26.2 37.9 30.9 40.6 30.9 40 26.2 38.2 26.2"/>
          <polygon class="st0" points="43.4 15.9 40 26.2 40.6 30.9 43.4 18.8 43.4 15.9"/>
        </g>
        <g>
          <polygon class="st11" points="59.4 27.9 59 33.3 62.4 33.3 63.1 17 63.1 13.6 62.1 13.6 59.4 27.9"/>
          <polygon class="st3" points="59.4 27.9 59 33.3 62.4 33.3 61 27.9 59.4 27.9"/>
          <polygon class="st0" points="63.1 13.6 61 27.9 62.4 33.3 63.1 17 63.1 13.6"/>
        </g>
      </g>
      <g>
        <polygon class="st7" points="95.6 77.7 69.5 78.7 70.5 67.9 95.6 67.9 95.6 77.7"/>
        <rect class="st4" x="70.5" y="67.9" width="25.1" height="9.8"/>
        <rect class="st12" x="73" y="69.9" width="20" height="5.9"/>
      </g>
    </g>
  </g>
</svg>