<?xml version="1.0" encoding="UTF-8"?>
<svg id="Layer_1" xmlns="http://www.w3.org/2000/svg" version="1.1" viewBox="0 0 166 120">
  <!-- Generator: Adobe Illustrator 29.3.1, SVG Export Plug-In . SVG Version: 2.1.0 Build 151)  -->
  <defs>
    <style>
      .st0 {
        fill: #54b2a0;
      }

      .st1 {
        fill: #8e6b3d;
      }

      .st2 {
        fill: #e5bf55;
      }

      .st3 {
        fill: #fce47e;
      }

      .st4 {
        fill: #458c7e;
      }

      .st5 {
        fill: #fff;
      }

      .st6 {
        fill: none;
        stroke: #256045;
        stroke-miterlimit: 10;
      }

      .st7 {
        fill: #685e56;
      }

      .st8 {
        fill: #b2b2a8;
      }

      .st9 {
        fill: #575756;
      }

      .st10 {
        fill: #3d7a4c;
      }

      .st11 {
        fill: #706f6f;
      }

      .st12 {
        fill: #f9f9f9;
      }

      .st13 {
        fill: #333f39;
      }

      .st14 {
        fill: #ba9d9b;
      }

      .st15 {
        fill: #b7605e;
      }

      .st16 {
        fill: #84776b;
      }

      .st17 {
        fill: #2d2d2c;
      }

      .st18 {
        fill: #eace5c;
      }

      .st19 {
        fill: #c6c6c6;
      }

      .st20 {
        fill: #dadada;
      }

      .st21 {
        fill: #a57574;
      }

      .st22 {
        fill: #f2d85a;
      }
    </style>
  </defs>
  <g id="Layer_11">
    <g>
      <g>
        <path class="st9" d="M83.1,38.7c-40.6,0-75.4-6.7-75.4-6.7,0,0,14,14.1,25.3,18.1h100.2c11.3-4.1,25.3-18.1,25.3-18.1,0,0-34.9,6.7-75.4,6.7h0Z"/>
        <path class="st19" d="M2.2,31.1s.6.3,1.7.7c1.1.4,2.8,1,5,1.5,1.1.3,2.3.6,3.6.9,1.3.2,2.7.6,4.3.8,1.5.3,3.2.6,4.9.8.9,0,1.7.2,2.7.4.9,0,1.8.2,2.8.3,1.9.2,3.9.4,5.9.6,2,.2,4.2.3,6.3.5,2.2.2,4.4.2,6.7.3,1.1,0,2.3,0,3.5,0h3.5c4.8.2,9.7,0,14.7,0h48.6c1.2,0,2.3,0,3.5,0,2.3,0,4.5-.2,6.7-.3,2.2,0,4.3-.3,6.3-.5s4-.3,5.9-.6c.9,0,1.9-.2,2.8-.3.9,0,1.8-.3,2.7-.4,1.7-.2,3.4-.5,4.9-.8,1.5-.2,3-.6,4.3-.8,1.3-.3,2.5-.6,3.6-.9,2.2-.6,3.9-1.1,5-1.5s1.7-.7,1.7-.7c0,0-.6.4-1.7,1-1.1.6-2.8,1.4-4.9,2.2-1.1.4-2.3.8-3.6,1.3-1.3.4-2.7.9-4.3,1.2-1.5.4-3.2.8-4.9,1.2-.9.2-1.7.4-2.7.6-.9.2-1.8.3-2.8.5-1.9.4-3.9.7-5.9,1-2.1.3-4.2.6-6.4.8-2.2.3-4.4.5-6.7.7s-4.7.3-7.1.5c-2.4,0-4.8.3-7.3.3s-4.9,0-7.5,0h-30.4c-2.5,0-5,0-7.5,0-2.5,0-4.9-.2-7.3-.3-1.2,0-2.4,0-3.6-.2-1.2,0-2.3-.2-3.5-.3-2.3-.2-4.6-.4-6.7-.7-2.2-.3-4.3-.5-6.4-.8-2.1-.3-4-.6-5.9-1-1-.2-1.9-.3-2.8-.5s-1.8-.4-2.7-.6c-1.7-.4-3.4-.8-4.9-1.2s-3-.8-4.3-1.2c-1.3-.5-2.5-.8-3.6-1.3-2.2-.8-3.8-1.6-4.9-2.2-1.1-.6-1.7-1-1.7-1,0,0,.4,0,.4,0Z"/>
        <polygon class="st0" points="120.4 15.5 83.1 15.5 45.8 15.5 40.7 38.1 83.1 38.1 125.5 38.1 120.4 15.5"/>
        <polygon class="st4" points="83.1 13.6 48.9 13.6 49.2 16.9 83.4 16.9 117.2 16.9 117.2 13.6 83.1 13.6"/>
        <path class="st0" d="M83.1,40.3h-26.7C16.5,40.3.3,29.7.3,29.7c22.3,5.3,34.7,1.5,44.7-4.2h76c10,5.7,22.5,9.5,44.7,4.2,0,0-16.2,10.6-56.1,10.6h-26.7"/>
        <path class="st4" d="M164.3,30c-17.8,6.1-34.8,5.7-43.1-.5v-4.5c8.3,6.2,25.7,8.9,43.4,2.8l-.3,2.2h0Z"/>
        <path class="st22" d="M164,30c-17.8,6.1-34.8,3.7-43.1-2.5v-2.5c8.3,6.2,25.7,8.9,43.4,2.8l-.3,2.2h0Z"/>
        <path class="st4" d="M2.2,30c17.8,6.1,34.8,5.7,43.1-.5v-4.5c-8.3,6.2-25.7,8.9-43.4,2.8l.3,2.2h0Z"/>
        <path class="st22" d="M2.2,30c17.8,6.1,34.8,3.7,43.1-2.5v-2.5c-8.3,6.2-25.7,8.9-43.4,2.8l.3,2.2h0Z"/>
        <g>
          <polygon class="st4" points="119.9 27.8 120.3 33.2 117.5 33.2 114.4 16.4 115.4 13 116.4 13 119.9 27.8"/>
          <polygon class="st3" points="121.6 27.8 121.9 33.2 119.2 33.2 117 16.4 117 13 118 13 121.6 27.8"/>
          <polygon class="st22" points="121.6 27.8 121.9 33.2 119.2 33.2 120.2 27.8 121.6 27.8"/>
          <polygon class="st2" points="117 13 120.2 27.8 119.2 33.2 117 16.4 117 13"/>
        </g>
        <circle class="st18" cx="147.3" cy="29.7" r="1.7"/>
        <circle class="st18" cx="162.5" cy="27.4" r="1.3"/>
        <circle class="st18" cx="152.1" cy="29.7" r=".9"/>
        <circle class="st18" cx="155.6" cy="29.2" r=".9"/>
        <circle class="st18" cx="158.9" cy="28.5" r=".9"/>
        <g>
          <polygon class="st4" points="45.9 27.8 45.5 33.2 48.3 33.2 51.4 16.4 50.4 13 49.4 13 45.9 27.8"/>
          <polygon class="st3" points="44.6 27.8 44.2 33.2 46.9 33.2 49.1 16.4 49.1 13 48.1 13 44.6 27.8"/>
          <polygon class="st22" points="44.6 27.8 44.2 33.2 46.9 33.2 46 27.8 44.6 27.8"/>
          <polygon class="st2" points="49.1 13 46 27.8 46.9 33.2 49.1 16.4 49.1 13"/>
        </g>
        <polygon class="st22" points="83.1 12.6 48.9 12.6 48.9 15.9 83.1 15.9 117.2 15.9 117.2 12.6 83.1 12.6"/>
        <polygon class="st2" points="83.1 13.9 48.9 13.9 48.9 14.6 83.1 14.6 117.2 14.6 117.2 13.9 83.1 13.9"/>
        <circle class="st18" cx="18.9" cy="29.7" r="1.8"/>
        <circle class="st18" cx="3.6" cy="27.4" r="1.3"/>
        <circle class="st18" cx="14" cy="29.7" r=".9"/>
        <circle class="st18" cx="10.6" cy="29.2" r=".9"/>
        <circle class="st18" cx="7.3" cy="28.5" r=".9"/>
        <path class="st18" d="M114.3,10.3h-2s-2-1.5-2-5,.7-2.4,2-2.4,2.1,1,2.1,2-.5,1.5-1,1.7c0,0,.7,1.8,2.2,1.8s0-4.1,1.7-4.1,1,1.6,1,2.4.8,2.3.8,3.7-1.5,3.1-1.5,4.5c0,0-1-1.5-3-1.5s-2-1.2-2-1.2c0,0,1.6.2,1.6-1.8h.1Z"/>
        <path class="st18" d="M51.8,10.3h2s2-1.5,2-5-.7-2.4-2-2.4-2.1,1-2.1,2,.5,1.5,1,1.7c0,0-.7,1.8-2.2,1.8s0-4.1-1.7-4.1-1,1.6-1,2.4-.8,2.3-.8,3.7,1.5,3.1,1.5,4.5c0,0,1-1.5,3-1.5s2-1.2,2-1.2c0,0-1.6.2-1.6-1.8h-.1Z"/>
      </g>
      <rect class="st16" x="35.1" y="46.6" width="95.9" height="31.4"/>
      <rect class="st7" x="35.1" y="46.6" width="95.9" height="14.5"/>
      <rect class="st17" x="76.2" y="55.1" width="13.8" height="22.9"/>
      <g>
        <rect class="st8" x="13.2" y="78.3" width="139.7" height="41.6"/>
        <rect class="st16" x="13.2" y="78.3" width="139.7" height="2.8"/>
        <rect class="st12" x="11.1" y="74.4" width="143.9" height="3.9"/>
        <path class="st11" d="M83.1,83.6c-11.9,0-21.6,9.7-21.6,21.6v14.7h43.2v-14.7c0-11.9-9.7-21.6-21.6-21.6h0Z"/>
        <path class="st17" d="M83.1,87.8c-9.6,0-17.4,7.8-17.4,17.4v14.7h34.8v-14.7c0-9.6-7.8-17.4-17.4-17.4h0Z"/>
      </g>
      <g>
        <rect class="st5" x="69.6" y="62.2" width="26.8" height="12.4"/>
        <rect class="st21" x="70.5" y="63" width="25.1" height="9.8"/>
        <rect class="st20" x="73.1" y="65" width="20" height="5.9"/>
      </g>
      <g>
        <rect class="st15" x="66.4" y="49.4" width="3" height="25"/>
        <rect class="st13" x="66.4" y="44.2" width="3" height="5.2"/>
      </g>
      <rect class="st15" x="96.8" y="49.4" width="3" height="25"/>
      <rect class="st13" x="96.8" y="44.2" width="3" height="5.2"/>
      <g>
        <rect class="st15" x="39.2" y="49.4" width="3" height="25"/>
        <rect class="st13" x="39.2" y="44.2" width="3" height="5.2"/>
      </g>
      <g>
        <rect class="st15" x="25.8" y="49.4" width="3" height="25"/>
        <rect class="st13" x="25.8" y="44.2" width="3" height="5.2"/>
      </g>
      <g>
        <rect class="st20" x="42.2" y="44.2" width="24.2" height="5.2"/>
        <polygon class="st6" points="63.1 49.4 45.5 49.4 43.5 46.8 45.5 44.2 63.1 44.2 65.1 46.8 63.1 49.4"/>
        <polygon class="st6" points="59.1 49.4 49.5 49.4 47.5 46.8 49.5 44.2 59.1 44.2 61.1 46.8 59.1 49.4"/>
        <polygon class="st1" points="50.2 48 49.3 46.8 50.2 45.6 58.4 45.6 59.3 46.8 58.4 48 50.2 48"/>
      </g>
      <g>
        <rect class="st20" x="28.8" y="44.2" width="10.4" height="5.2"/>
        <g>
          <polygon class="st6" points="35.9 49.4 32.4 49.4 30.4 46.8 32.4 44.2 35.9 44.2 37.9 46.8 35.9 49.4"/>
          <polygon class="st1" points="33.1 48 32.2 46.8 33.1 45.6 35.3 45.6 36.2 46.8 35.3 48 33.1 48"/>
        </g>
      </g>
      <polygon class="st14" points="46.7 49.4 44.1 49.4 42.2 49.4 42.2 51.3 42.2 53.1 44.1 53.1 44.1 51.3 46.7 51.3 46.7 49.4"/>
      <polygon class="st14" points="33.3 49.4 30.8 49.4 28.8 49.4 28.8 51.3 28.8 53.1 30.8 53.1 30.8 51.3 33.3 51.3 33.3 49.4"/>
      <polygon class="st14" points="35 49.4 37.5 49.4 39.5 49.4 39.5 51.3 39.5 53.1 37.5 53.1 37.5 51.3 35 51.3 35 49.4"/>
      <polygon class="st14" points="61.9 49.4 64.5 49.4 66.4 49.4 66.4 51.3 66.4 53.1 64.5 53.1 64.5 51.3 61.9 51.3 61.9 49.4"/>
      <g>
        <rect class="st15" x="123.9" y="49.4" width="3" height="25"/>
        <rect class="st13" x="123.9" y="44.2" width="3" height="5.2"/>
      </g>
      <g>
        <rect class="st15" x="137.3" y="49.4" width="3" height="25"/>
        <rect class="st13" x="137.3" y="44.2" width="3" height="5.2"/>
      </g>
      <g>
        <rect class="st20" x="99.7" y="44.2" width="24.2" height="5.2"/>
        <polygon class="st6" points="103.1 49.4 120.6 49.4 122.6 46.8 120.6 44.2 103.1 44.2 101.1 46.8 103.1 49.4"/>
        <polygon class="st6" points="107.1 49.4 116.6 49.4 118.6 46.8 116.6 44.2 107.1 44.2 105.1 46.8 107.1 49.4"/>
        <polygon class="st1" points="115.9 48 116.9 46.8 115.9 45.6 107.8 45.6 106.9 46.8 107.8 48 115.9 48"/>
      </g>
      <g>
        <rect class="st20" x="126.9" y="44.2" width="10.4" height="5.2"/>
        <g>
          <polygon class="st6" points="130.2 49.4 133.8 49.4 135.8 46.8 133.8 44.2 130.2 44.2 128.2 46.8 130.2 49.4"/>
          <polygon class="st1" points="133.1 48 134 46.8 133.1 45.6 130.9 45.6 130 46.8 130.9 48 133.1 48"/>
        </g>
      </g>
      <polygon class="st14" points="119.5 49.4 122 49.4 124 49.4 124 51.3 124 53.1 122 53.1 122 51.3 119.5 51.3 119.5 49.4"/>
      <polygon class="st14" points="132.8 49.4 135.4 49.4 137.3 49.4 137.3 51.3 137.3 53.1 135.4 53.1 135.4 51.3 132.8 51.3 132.8 49.4"/>
      <polygon class="st14" points="131.1 49.4 128.6 49.4 126.7 49.4 126.7 51.3 126.7 53.1 128.6 53.1 128.6 51.3 131.1 51.3 131.1 49.4"/>
      <polygon class="st14" points="104.2 49.4 101.7 49.4 99.8 49.4 99.8 51.3 99.8 53.1 101.7 53.1 101.7 51.3 104.2 51.3 104.2 49.4"/>
      <g>
        <rect class="st20" x="69.4" y="44.2" width="27.4" height="5.2"/>
        <polygon class="st6" points="91.9 49.4 74.3 49.4 72.3 46.8 74.3 44.2 91.9 44.2 93.9 46.8 91.9 49.4"/>
        <polygon class="st6" points="87.9 49.4 78.3 49.4 76.3 46.8 78.3 44.2 87.9 44.2 89.9 46.8 87.9 49.4"/>
        <polygon class="st1" points="79 48 78.1 46.8 79 45.6 87.2 45.6 88.1 46.8 87.2 48 79 48"/>
      </g>
      <polygon class="st14" points="73.9 49.4 71.3 49.4 69.4 49.4 69.4 51.3 69.4 53.1 71.3 53.1 71.3 51.3 73.9 51.3 73.9 49.4"/>
      <polygon class="st14" points="92.3 49.4 94.8 49.4 96.8 49.4 96.8 51.3 96.8 53.1 94.8 53.1 94.8 51.3 92.3 51.3 92.3 49.4"/>
      <g>
        <path class="st10" d="M107.8,100.6c0-.5-.6-.9-1.1-.9h-7.5c-.5,0-1,.4-1.1.9-.4,2-1.4,6.8-1.4,11.1s.6,8.3.6,8.3h11.4s.6-2.7.6-8.3-.9-9.1-1.4-11.1h0Z"/>
        <path class="st10" d="M127.6,98.2c0-.5-.6-.9-1.1-.9h-9.5c-.5,0-1,.4-1.1.9-.4,1.9-1.4,6.5-1.4,11.3s1.6,10.5,1.6,10.5h11.4s1.6-4.3,1.6-10.5-.9-9.4-1.4-11.3h0Z"/>
        <path class="st10" d="M58.3,100.6c0-.5.6-.9,1.1-.9h7.6c.5,0,1,.4,1.1.9.4,2,1.4,6.8,1.4,11.1s-.6,8.3-.6,8.3h-11.4s-.6-2.7-.6-8.3.9-9.1,1.4-11.1Z"/>
        <path class="st10" d="M38.5,98.2c0-.5.6-.9,1.1-.9h9.6c.5,0,1,.4,1.1.9.4,1.9,1.4,6.5,1.4,11.3s-1.6,10.5-1.6,10.5h-11.4s-1.6-4.3-1.6-10.5.9-9.4,1.4-11.3Z"/>
      </g>
      <g>
        <rect class="st5" x="27.3" y="70.5" width="40.5" height="3.9"/>
        <path class="st5" d="M25.5,64.9h-1.9v-1.9h-8.1v11.4h11.9v-7.6h-1.9v-1.9h0ZM21.7,68.6h-3.7v-1.9h3.7v1.9Z"/>
        <path class="st5" d="M43,66.8v-1.9h-1.9v-1.9h-5.6v1.9h-1.9v1.9h-1.9v7.6h13.1v-7.6h-1.9.1ZM40.1,68.6h-3.7v-1.9h3.7v1.9Z"/>
        <path class="st5" d="M61.3,66.8v-1.9h-1.9v-1.9h-5.6v1.9h-1.9v1.9h-1.9v7.6h13.1v-7.6h-1.9.1ZM58.5,68.6h-3.7v-1.9h3.7v1.9Z"/>
      </g>
      <g>
        <rect class="st5" x="98.3" y="70.5" width="40.5" height="3.9"/>
        <path class="st5" d="M140.7,66.8h-1.9v7.6h11.9v-11.4h-8.1v1.9h-1.9v1.9ZM144.4,66.8h3.8v1.9h-3.8v-1.9Z"/>
        <path class="st5" d="M121.3,66.8v7.6h13.2v-7.6h-1.9v-1.9h-1.9v-1.9h-5.6v1.9h-1.9v1.9h-1.9ZM126,66.8h3.7v1.9h-3.7v-1.9Z"/>
        <path class="st5" d="M103,66.8v7.6h13.2v-7.6h-1.9v-1.9h-1.9v-1.9h-5.6v1.9h-1.9v1.9h-1.9,0ZM107.7,66.8h3.7v1.9h-3.7v-1.9Z"/>
      </g>
    </g>
  </g>
</svg>