<?xml version="1.0" encoding="UTF-8"?>
<svg id="Layer_1" xmlns="http://www.w3.org/2000/svg" version="1.1" viewBox="0 0 166 120">
  <!-- Generator: Adobe Illustrator 29.3.1, SVG Export Plug-In . SVG Version: 2.1.0 Build 151)  -->
  <defs>
    <style>
      .st0 {
        fill: #54b2a0;
      }

      .st1 {
        fill: #8e6b3d;
      }

      .st2 {
        fill: #e5bf55;
      }

      .st3 {
        fill: #fce47e;
      }

      .st4 {
        fill: #fff;
      }

      .st5 {
        fill: none;
        stroke: #256045;
        stroke-miterlimit: 10;
      }

      .st6 {
        fill: #b2b2a8;
      }

      .st7 {
        fill: #575756;
      }

      .st8 {
        fill: #3d7a4c;
      }

      .st9 {
        fill: #706f6f;
      }

      .st10 {
        fill: #f9f9f9;
      }

      .st11 {
        fill: #333f39;
      }

      .st12 {
        fill: #ba9d9b;
      }

      .st13 {
        fill: #b7605e;
      }

      .st14 {
        fill: #7a7a6d;
      }

      .st15 {
        fill: #84776b;
      }

      .st16 {
        fill: #2d2d2c;
      }

      .st17 {
        fill: #eace5c;
      }

      .st18 {
        fill: #c6c6c6;
      }

      .st19 {
        fill: #dadada;
      }

      .st20 {
        fill: #a57574;
      }

      .st21 {
        fill: #f2d85a;
      }
    </style>
  </defs>
  <g id="Layer_11">
    <g>
      <g>
        <path class="st7" d="M83.1,38.6c-40.6,0-75.4-6.7-75.4-6.7,0,0,14,14.1,25.3,18.1h100.2c11.3-4.1,25.3-18.1,25.3-18.1,0,0-34.9,6.7-75.4,6.7Z"/>
        <path class="st18" d="M2.2,31s.6.3,1.7.7,2.8,1,5,1.5c1.1.3,2.3.6,3.6.9,1.3.2,2.7.6,4.3.8,1.5.3,3.2.6,4.9.8.9,0,1.7.2,2.7.4.9,0,1.8.2,2.8.3,1.9.2,3.9.4,5.9.6s4.2.3,6.3.5c2.2.2,4.4.2,6.7.3,1.1,0,2.3,0,3.5,0h3.5c4.8.2,9.7,0,14.7,0h48.6c1.2,0,2.3,0,3.5,0,2.3,0,4.5-.2,6.7-.3,2.2,0,4.3-.3,6.3-.5s4-.3,5.9-.6c.9,0,1.9-.2,2.8-.3.9,0,1.8-.3,2.7-.4,1.7-.2,3.4-.5,4.9-.8,1.5-.2,3-.6,4.3-.8,1.3-.3,2.5-.6,3.6-.9,2.2-.6,3.9-1.1,5-1.5s1.7-.7,1.7-.7c0,0-.6.4-1.7,1-1.1.6-2.8,1.4-4.9,2.2-1.1.4-2.3.8-3.6,1.3-1.3.4-2.7.9-4.3,1.2-1.5.4-3.2.8-4.9,1.2-.9.2-1.7.4-2.7.6-.9.2-1.8.3-2.8.5-1.9.4-3.9.7-5.9,1-2.1.3-4.2.6-6.4.8-2.2.3-4.4.5-6.7.7-2.3.2-4.7.3-7.1.5-2.4,0-4.8.3-7.3.3s-4.9,0-7.5,0h-30.4c-2.5,0-5,0-7.5,0-2.5,0-4.9-.2-7.3-.3-1.2,0-2.4,0-3.6-.2-1.2,0-2.3-.2-3.5-.3-2.3-.2-4.6-.4-6.7-.7-2.2-.3-4.3-.5-6.4-.8-2.1-.3-4-.6-5.9-1-1-.2-1.9-.3-2.8-.5s-1.8-.4-2.7-.6c-1.7-.4-3.4-.8-4.9-1.2s-3-.8-4.3-1.2c-1.3-.5-2.5-.8-3.6-1.3-2.2-.8-3.8-1.6-4.9-2.2-1.1-.6-1.7-1-1.7-1h.4Z"/>
        <polygon class="st0" points="120.4 15.4 83.1 15.4 45.8 15.4 40.7 38 83.1 38 125.5 38 120.4 15.4"/>
        <path class="st0" d="M83.1,40.3h-26.7C16.5,40.3.3,29.7.3,29.7c22.3,5.3,34.7,1.5,44.7-4.2h76c10,5.7,22.5,9.5,44.7,4.2,0,0-16.2,10.6-56.1,10.6h-26.7"/>
        <path class="st21" d="M164,29.9c-17.8,6.1-34.8,3.7-43.1-2.5v-2.5c8.3,6.2,25.7,8.9,43.4,2.8l-.3,2.2Z"/>
        <path class="st21" d="M2.2,29.9c17.8,6.1,34.8,3.7,43.1-2.5v-2.5c-8.3,6.2-25.7,8.9-43.4,2.8,0,0,.3,2.2.3,2.2Z"/>
        <g>
          <polygon class="st3" points="121.6 27.7 122 33.1 119.3 33.1 117.1 16.3 117.1 13 118.1 13 121.6 27.7"/>
          <polygon class="st21" points="121.6 27.7 122 33.1 119.3 33.1 120.2 27.7 121.6 27.7"/>
          <polygon class="st2" points="117.1 13 120.2 27.7 119.3 33.1 117.1 16.3 117.1 13"/>
        </g>
        <circle class="st17" cx="147.3" cy="29.7" r="1.7"/>
        <circle class="st17" cx="162.6" cy="27.3" r="1.3"/>
        <circle class="st17" cx="152.2" cy="29.7" r=".9"/>
        <circle class="st17" cx="155.6" cy="29.2" r=".9"/>
        <circle class="st17" cx="158.9" cy="28.4" r=".9"/>
        <g>
          <polygon class="st3" points="44.6 27.7 44.2 33.1 47 33.1 49.1 16.3 49.1 13 48.2 13 44.6 27.7"/>
          <polygon class="st21" points="44.6 27.7 44.2 33.1 47 33.1 46 27.7 44.6 27.7"/>
          <polygon class="st2" points="49.1 13 46 27.7 47 33.1 49.1 16.3 49.1 13"/>
        </g>
        <polygon class="st21" points="83.1 12.6 49 12.6 49 15.8 83.1 15.8 117.3 15.8 117.3 12.6 83.1 12.6"/>
        <polygon class="st2" points="83.1 13.8 49 13.8 49 14.6 83.1 14.6 117.3 14.6 117.3 13.8 83.1 13.8"/>
        <circle class="st17" cx="18.9" cy="29.7" r="1.8"/>
        <circle class="st17" cx="3.7" cy="27.3" r="1.3"/>
        <circle class="st17" cx="14.1" cy="29.7" r=".9"/>
        <circle class="st17" cx="10.6" cy="29.2" r=".9"/>
        <circle class="st17" cx="7.3" cy="28.4" r=".9"/>
        <path class="st17" d="M114.4,10.3h-2s-2-1.5-2-5,.7-2.4,2-2.4,2.1,1,2.1,2-.5,1.5-1,1.7c0,0,.7,1.8,2.2,1.8s0-4.1,1.7-4.1,1,1.6,1,2.4.8,2.3.8,3.7-1.5,3.1-1.5,4.5c0,0-1-1.5-3-1.5s-2-1.2-2-1.2c0,0,1.6.2,1.6-1.8h.1Z"/>
        <path class="st17" d="M51.9,10.3h2s2-1.5,2-5-.7-2.4-2-2.4-2.1,1-2.1,2,.5,1.5,1,1.7c0,0-.7,1.8-2.2,1.8s0-4.1-1.7-4.1-1,1.6-1,2.4-.8,2.3-.8,3.7,1.5,3.1,1.5,4.5c0,0,1-1.5,3-1.5s2-1.2,2-1.2c0,0-1.6.2-1.6-1.8h-.1Z"/>
      </g>
      <rect class="st15" x="35.2" y="46.5" width="95.9" height="31.4"/>
      <rect class="st16" x="76.2" y="55" width="13.8" height="22.9"/>
      <g>
        <rect class="st6" x="13.3" y="78.2" width="139.7" height="41.6"/>
        <rect class="st14" x="13.3" y="78.2" width="139.7" height="2.8"/>
        <rect class="st10" x="11.2" y="74.3" width="143.9" height="3.9"/>
        <path class="st9" d="M83.1,83.5c-11.9,0-21.6,9.7-21.6,21.6v14.7h43.2v-14.7c0-11.9-9.7-21.6-21.6-21.6Z"/>
        <path class="st16" d="M83.1,87.7c-9.6,0-17.4,7.8-17.4,17.4v14.7h34.8v-14.7c0-9.6-7.8-17.4-17.4-17.4Z"/>
      </g>
      <g>
        <rect class="st4" x="69.7" y="62.1" width="26.8" height="12.4"/>
        <rect class="st20" x="70.6" y="63" width="25.1" height="9.8"/>
        <rect class="st19" x="73.1" y="64.9" width="20" height="5.9"/>
      </g>
      <g>
        <rect class="st13" x="66.4" y="49.3" width="3" height="25"/>
        <rect class="st11" x="66.4" y="44.2" width="3" height="5.2"/>
      </g>
      <rect class="st13" x="96.8" y="49.4" width="3" height="25"/>
      <rect class="st11" x="96.8" y="44.1" width="3" height="5.2"/>
      <g>
        <rect class="st13" x="39.2" y="49.3" width="3" height="25"/>
        <rect class="st11" x="39.2" y="44.2" width="3" height="5.2"/>
      </g>
      <g>
        <rect class="st13" x="25.9" y="49.3" width="3" height="25"/>
        <rect class="st11" x="25.9" y="44.2" width="3" height="5.2"/>
      </g>
      <g>
        <rect class="st19" x="42.2" y="44.2" width="24.2" height="5.2"/>
        <polygon class="st5" points="63.1 49.3 45.5 49.3 43.5 46.8 45.5 44.2 63.1 44.2 65.1 46.8 63.1 49.3"/>
        <polygon class="st5" points="59.1 49.3 49.5 49.3 47.5 46.8 49.5 44.2 59.1 44.2 61.1 46.8 59.1 49.3"/>
        <polygon class="st1" points="50.2 47.9 49.3 46.8 50.2 45.6 58.4 45.6 59.3 46.8 58.4 47.9 50.2 47.9"/>
      </g>
      <g>
        <rect class="st19" x="28.9" y="44.2" width="10.4" height="5.2"/>
        <g>
          <polygon class="st5" points="36 49.3 32.4 49.3 30.4 46.8 32.4 44.2 36 44.2 38 46.8 36 49.3"/>
          <polygon class="st1" points="33.1 47.9 32.2 46.8 33.1 45.6 35.3 45.6 36.2 46.8 35.3 47.9 33.1 47.9"/>
        </g>
      </g>
      <polygon class="st12" points="46.7 49.3 44.2 49.3 42.2 49.3 42.2 51.3 42.2 53 44.2 53 44.2 51.3 46.7 51.3 46.7 49.3"/>
      <polygon class="st12" points="33.4 49.3 30.8 49.3 28.9 49.3 28.9 51.3 28.9 53 30.8 53 30.8 51.3 33.4 51.3 33.4 49.3"/>
      <polygon class="st12" points="35 49.3 37.6 49.3 39.5 49.3 39.5 51.3 39.5 53 37.6 53 37.6 51.3 35 51.3 35 49.3"/>
      <polygon class="st12" points="62 49.3 64.5 49.3 66.4 49.3 66.4 51.3 66.4 53 64.5 53 64.5 51.3 62 51.3 62 49.3"/>
      <g>
        <rect class="st13" x="124" y="49.4" width="3" height="25"/>
        <rect class="st11" x="124" y="44.1" width="3" height="5.2"/>
      </g>
      <g>
        <rect class="st13" x="137.4" y="49.4" width="3" height="25"/>
        <rect class="st11" x="137.4" y="44.1" width="3" height="5.2"/>
      </g>
      <g>
        <rect class="st19" x="99.8" y="44.1" width="24.2" height="5.2"/>
        <polygon class="st5" points="103.1 49.3 120.7 49.3 122.7 46.8 120.7 44.2 103.1 44.2 101.1 46.8 103.1 49.3"/>
        <polygon class="st5" points="107.1 49.3 116.7 49.3 118.7 46.8 116.7 44.2 107.1 44.2 105.1 46.8 107.1 49.3"/>
        <polygon class="st1" points="116 47.9 116.9 46.8 116 45.6 107.8 45.6 106.9 46.8 107.8 47.9 116 47.9"/>
      </g>
      <g>
        <rect class="st19" x="127" y="44.1" width="10.4" height="5.2"/>
        <g>
          <polygon class="st5" points="130.2 49.3 133.8 49.3 135.8 46.8 133.8 44.2 130.2 44.2 128.2 46.8 130.2 49.3"/>
          <polygon class="st1" points="133.1 47.9 134 46.8 133.1 45.6 130.9 45.6 130 46.8 130.9 47.9 133.1 47.9"/>
        </g>
      </g>
      <polygon class="st12" points="119.5 49.3 122.1 49.3 124 49.3 124 51.3 124 53 122.1 53 122.1 51.3 119.5 51.3 119.5 49.3"/>
      <polygon class="st12" points="132.9 49.3 135.4 49.3 137.3 49.3 137.3 51.3 137.3 53 135.4 53 135.4 51.3 132.9 51.3 132.9 49.3"/>
      <polygon class="st12" points="131.2 49.3 128.7 49.3 126.7 49.3 126.7 51.3 126.7 53 128.7 53 128.7 51.3 131.2 51.3 131.2 49.3"/>
      <polygon class="st12" points="104.3 49.3 101.7 49.3 99.8 49.3 99.8 51.3 99.8 53 101.7 53 101.7 51.3 104.3 51.3 104.3 49.3"/>
      <g>
        <rect class="st19" x="69.4" y="44.2" width="27.4" height="5.2"/>
        <polygon class="st5" points="91.9 49.3 74.3 49.3 72.3 46.8 74.3 44.2 91.9 44.2 93.9 46.8 91.9 49.3"/>
        <polygon class="st5" points="87.9 49.3 78.3 49.3 76.3 46.8 78.3 44.2 87.9 44.2 89.9 46.8 87.9 49.3"/>
        <polygon class="st1" points="79 47.9 78.1 46.8 79 45.6 87.2 45.6 88.1 46.8 87.2 47.9 79 47.9"/>
      </g>
      <polygon class="st12" points="73.9 49.3 71.4 49.3 69.4 49.3 69.4 51.3 69.4 53 71.4 53 71.4 51.3 73.9 51.3 73.9 49.3"/>
      <polygon class="st12" points="92.3 49.3 94.9 49.3 96.8 49.3 96.8 51.3 96.8 53 94.9 53 94.9 51.3 92.3 51.3 92.3 49.3"/>
      <path class="st8" d="M92.2,94.9c-.2-.6-.9-1-1.7-1h-14.7c-.8,0-1.6.4-1.7,1-.7,2.2-.9,7.5-.9,13s1.3,12.1,1.3,12.1h17.5s1.3-4.9,1.3-12.1-.3-10.8-.9-13h-.2Z"/>
      <path class="st8" d="M118.7,94.9c-.2-.6-.9-1-1.7-1h-14.7c-.8,0-1.6.4-1.7,1-.7,2.2-.9,7.5-.9,13s1.3,12.1,1.3,12.1h17.5s1.3-4.9,1.3-12.1-.3-10.8-.9-13h-.2Z"/>
      <path class="st8" d="M47.6,94.9c.2-.6.9-1,1.7-1h14.6c.8,0,1.6.4,1.7,1,.7,2.2.9,7.5.9,13s-1.3,12.1-1.3,12.1h-17.6s-1.3-4.9-1.3-12.1.3-10.8.9-13h.4Z"/>
      <g>
        <rect class="st4" x="27.4" y="70.5" width="40.5" height="3.9"/>
        <path class="st4" d="M25.5,64.8h-1.9v-1.9h-8.1v11.4h11.9v-7.6h-1.9v-1.9ZM21.8,68.6h-3.7v-1.9h3.7v1.9Z"/>
        <path class="st4" d="M43,66.7v-1.9h-1.9v-1.9h-5.6v1.9h-1.9v1.9h-1.9v7.6h13.1v-7.6h-1.9.1ZM40.2,68.6h-3.7v-1.9h3.7v1.9Z"/>
        <path class="st4" d="M61.4,66.7v-1.9h-1.9v-1.9h-5.6v1.9h-1.9v1.9h-1.9v7.6h13.1v-7.6h-1.9.1ZM58.5,68.6h-3.7v-1.9h3.7v1.9Z"/>
      </g>
      <g>
        <rect class="st4" x="98.4" y="70.4" width="40.5" height="3.9"/>
        <path class="st4" d="M140.7,66.7h-1.9v7.6h11.9v-11.4h-8.1v1.9h-1.9v1.9ZM144.5,66.7h3.8v1.9h-3.8v-1.9Z"/>
        <path class="st4" d="M121.3,66.7v7.6h13.2v-7.6h-1.9v-1.9h-1.9v-1.9h-5.6v1.9h-1.9v1.9h-1.9ZM126,66.7h3.7v1.9h-3.7v-1.9Z"/>
        <path class="st4" d="M103,66.7v7.6h13.2v-7.6h-1.9v-1.9h-1.9v-1.9h-5.6v1.9h-1.9v1.9s-1.9,0-1.9,0ZM107.7,66.7h3.7v1.9h-3.7v-1.9Z"/>
      </g>
    </g>
  </g>
</svg>