<?xml version="1.0" encoding="UTF-8"?>
<svg id="Layer_1" xmlns="http://www.w3.org/2000/svg" version="1.1" viewBox="0 0 720 360">
  <!-- Generator: Adobe Illustrator 29.3.1, SVG Export Plug-In . SVG Version: 2.1.0 Build 151)  -->
  <defs>
    <style>
      .st0 {
        fill: #71b7e2;
      }

      .st1 {
        fill: #f2948b;
      }

      .st2 {
        fill: #fff;
      }

      .st3 {
        fill: #ecebec;
      }

      .st4 {
        fill: #5d9ec6;
      }

      .st5 {
        fill: #998675;
      }

      .st6 {
        fill: #67a9dd;
      }

      .st7 {
        fill: #534741;
        stroke: #e6e6e6;
        stroke-miterlimit: 5.7;
        stroke-width: .6px;
      }

      .st8 {
        fill: #736357;
      }

      .st9 {
        fill: #644e43;
      }

      .st10 {
        fill: #c9e8fb;
      }

      .st11 {
        fill: #7ec6f2;
      }

      .st12 {
        fill: #b3b3b3;
      }

      .st13 {
        fill: #ed6d69;
      }

      .st14 {
        fill: #ffe48c;
      }

      .st15 {
        fill: gray;
      }

      .st16 {
        fill: #92c998;
      }

      .st17 {
        fill: #dd8a5b;
      }

      .st18 {
        fill: #fbfbfc;
      }

      .st19 {
        fill: #00a99d;
      }

      .st20 {
        fill: #f49a62;
      }

      .st21 {
        fill: #fde3d0;
      }

      .st22 {
        fill: #e6e6e6;
      }
    </style>
  </defs>
  <g>
    <g>
      <rect class="st10" x="284.5" y="328.7" width="304.4" height="5.6"/>
      <rect class="st6" x="284.5" y="328" width="304.4" height="1.7"/>
      <rect class="st15" x="284.5" y="325.8" width="304.4" height="2.8"/>
      <rect class="st12" x="284.5" y="324.1" width="304.4" height="2.8"/>
    </g>
    <g>
      <rect class="st2" x="566.7" y="331.5" width="14.1" height="5.6"/>
      <polygon class="st11" points="584.2 334.3 580.8 334.3 580.8 331.5 584.2 334.3"/>
      <rect class="st2" x="569.5" y="337.1" width="8.5" height="19.7"/>
      <polygon class="st22" points="578 343.9 569.5 337.6 569.5 337.1 578 337.1 578 343.9"/>
    </g>
    <g>
      <rect class="st2" x="436.4" y="331.5" width="14.1" height="5.6"/>
      <polygon class="st11" points="453.8 334.3 450.5 334.3 450.5 331.5 453.8 334.3"/>
      <rect class="st2" x="439.2" y="337.1" width="8.5" height="19.7"/>
      <polygon class="st22" points="447.6 343.9 439.2 337.6 439.2 337.1 447.6 337.1 447.6 343.9"/>
    </g>
    <g>
      <rect class="st2" x="306.1" y="331.5" width="14.1" height="5.6"/>
      <polygon class="st11" points="323.5 334.3 320.1 334.3 320.1 331.5 323.5 334.3"/>
      <rect class="st2" x="308.9" y="337.1" width="8.5" height="19.7"/>
      <polygon class="st22" points="317.3 343.9 308.9 337.6 308.9 337.1 317.3 337.1 317.3 343.9"/>
    </g>
    <g>
      <g>
        <polygon class="st2" points="370.3 324.1 325.2 324.1 324.7 319 325.8 310.1 369.8 310.1 370.8 319 370.3 324.1"/>
        <polygon class="st6" points="324.9 321.8 325.2 324.1 370.3 324.1 370.5 321.8 324.9 321.8"/>
        <polygon class="st12" points="327.9 318.5 325.9 318.5 326.7 311.2 329.1 311.2 329.1 317.9 327.9 318.5"/>
        <rect class="st12" x="330.2" y="311.2" width="2.8" height="6.8"/>
        <rect class="st12" x="334.2" y="311.2" width="2.8" height="6.8"/>
        <rect class="st12" x="338" y="311.2" width="9" height="6.8"/>
        <polygon class="st12" points="367.6 318.5 369.7 318.5 368.8 311.2 366.5 311.2 366.5 317.9 367.6 318.5"/>
        <rect class="st12" x="362.6" y="311.2" width="2.8" height="6.8"/>
        <rect class="st12" x="358.6" y="311.2" width="2.8" height="6.8"/>
        <rect class="st12" x="348.5" y="311.2" width="9" height="6.8"/>
        <polygon class="st15" points="327.9 318.5 325.9 318.5 326.6 315.1 329.1 315.1 329.1 317.9 327.9 318.5"/>
        <rect class="st15" x="330.2" y="315.1" width="2.8" height="2.8"/>
        <rect class="st15" x="334.2" y="315.1" width="2.8" height="2.8"/>
        <rect class="st15" x="338" y="315.1" width="9" height="2.8"/>
        <polygon class="st15" points="367.6 318.5 369.7 318.5 368.9 315.1 366.5 315.1 366.5 317.9 367.6 318.5"/>
        <rect class="st15" x="362.6" y="315.1" width="2.8" height="2.8"/>
        <rect class="st15" x="358.6" y="315.1" width="2.8" height="2.8"/>
        <rect class="st15" x="348.5" y="315.1" width="9" height="2.8"/>
        <polygon class="st2" points="333.1 308.9 327 308.9 325.8 310.1 334.3 310.1 333.1 308.9"/>
        <polygon class="st2" points="368.7 308.9 362.5 308.9 361.3 310.1 369.8 310.1 368.7 308.9"/>
        <rect class="st12" x="328" y="309.6" width="3.7" height=".3"/>
        <rect class="st12" x="364" y="309.6" width="3.7" height=".3"/>
      </g>
      <g>
        <polygon class="st2" points="416.8 324.1 371.6 324.1 371.1 319 372.2 310.1 416.3 310.1 417.3 319 416.8 324.1"/>
        <polygon class="st6" points="371.4 321.8 371.6 324.1 416.8 324.1 417 321.8 371.4 321.8"/>
        <polygon class="st12" points="374.4 318.5 372.4 318.5 373.2 311.2 375.5 311.2 375.5 317.9 374.4 318.5"/>
        <rect class="st12" x="376.7" y="311.2" width="2.8" height="6.8"/>
        <rect class="st12" x="380.6" y="311.2" width="2.8" height="6.8"/>
        <rect class="st12" x="384.5" y="311.2" width="9" height="6.8"/>
        <polygon class="st12" points="414.1 318.5 416.1 318.5 415.2 311.2 412.9 311.2 412.9 317.9 414.1 318.5"/>
        <rect class="st12" x="409" y="311.2" width="2.8" height="6.8"/>
        <rect class="st12" x="405.1" y="311.2" width="2.8" height="6.8"/>
        <rect class="st12" x="394.9" y="311.2" width="9" height="6.8"/>
        <polygon class="st15" points="374.4 318.5 372.4 318.5 373 315.1 375.5 315.1 375.5 317.9 374.4 318.5"/>
        <rect class="st15" x="376.7" y="315.1" width="2.8" height="2.8"/>
        <rect class="st15" x="380.6" y="315.1" width="2.8" height="2.8"/>
        <rect class="st15" x="384.5" y="315.1" width="9" height="2.8"/>
        <polygon class="st15" points="414.1 318.5 416.1 318.5 415.4 315.1 412.9 315.1 412.9 317.9 414.1 318.5"/>
        <rect class="st15" x="409" y="315.1" width="2.8" height="2.8"/>
        <rect class="st15" x="405.1" y="315.1" width="2.8" height="2.8"/>
        <rect class="st15" x="394.9" y="315.1" width="9" height="2.8"/>
        <polygon class="st2" points="379.6 308.9 373.3 308.9 372.2 310.1 380.7 310.1 379.6 308.9"/>
        <polygon class="st2" points="415.1 308.9 408.8 308.9 407.8 310.1 416.3 310.1 415.1 308.9"/>
        <rect class="st12" x="374.5" y="309.6" width="3.7" height=".3"/>
        <rect class="st12" x="410.4" y="309.6" width="3.7" height=".3"/>
      </g>
      <g>
        <polygon class="st2" points="463.3 324.1 418.1 324.1 417.5 319 418.6 310.1 462.6 310.1 463.8 319 463.3 324.1"/>
        <polygon class="st6" points="417.9 321.8 418.1 324.1 463.3 324.1 463.5 321.8 417.9 321.8"/>
        <polygon class="st12" points="420.8 318.5 418.7 318.5 419.7 311.2 422 311.2 422 317.9 420.8 318.5"/>
        <rect class="st12" x="423" y="311.2" width="2.8" height="6.8"/>
        <rect class="st12" x="427" y="311.2" width="2.8" height="6.8"/>
        <rect class="st12" x="431" y="311.2" width="9" height="6.8"/>
        <polygon class="st12" points="460.6 318.5 462.5 318.5 461.7 311.2 459.4 311.2 459.4 317.9 460.6 318.5"/>
        <rect class="st12" x="455.4" y="311.2" width="2.8" height="6.8"/>
        <rect class="st12" x="451.5" y="311.2" width="2.8" height="6.8"/>
        <rect class="st12" x="441.3" y="311.2" width="9" height="6.8"/>
        <polygon class="st15" points="420.8 318.5 418.7 318.5 419.5 315.1 422 315.1 422 317.9 420.8 318.5"/>
        <rect class="st15" x="423" y="315.1" width="2.8" height="2.8"/>
        <rect class="st15" x="427" y="315.1" width="2.8" height="2.8"/>
        <rect class="st15" x="431" y="315.1" width="9" height="2.8"/>
        <polygon class="st15" points="460.6 318.5 462.5 318.5 461.9 315.1 459.4 315.1 459.4 317.9 460.6 318.5"/>
        <rect class="st15" x="455.4" y="315.1" width="2.8" height="2.8"/>
        <rect class="st15" x="451.5" y="315.1" width="2.8" height="2.8"/>
        <rect class="st15" x="441.3" y="315.1" width="9" height="2.8"/>
        <polygon class="st2" points="426 308.9 419.8 308.9 418.6 310.1 427.1 310.1 426 308.9"/>
        <polygon class="st2" points="461.5 308.9 455.3 308.9 454.1 310.1 462.6 310.1 461.5 308.9"/>
        <rect class="st12" x="420.9" y="309.6" width="3.7" height=".3"/>
        <rect class="st12" x="456.8" y="309.6" width="3.7" height=".3"/>
      </g>
      <g>
        <polygon class="st2" points="509.6 324.1 464.6 324.1 464 319 465.1 310.1 509.1 310.1 510.2 319 509.6 324.1"/>
        <polygon class="st6" points="464.3 321.8 464.6 324.1 509.6 324.1 510 321.8 464.3 321.8"/>
        <polygon class="st12" points="467.2 318.5 465.2 318.5 466.1 311.2 468.3 311.2 468.3 317.9 467.2 318.5"/>
        <rect class="st12" x="469.5" y="311.2" width="2.8" height="6.8"/>
        <rect class="st12" x="473.5" y="311.2" width="2.8" height="6.8"/>
        <rect class="st12" x="477.5" y="311.2" width="9" height="6.8"/>
        <polygon class="st12" points="507 318.5 509 318.5 508.1 311.2 505.8 311.2 505.8 317.9 507 318.5"/>
        <rect class="st12" x="501.9" y="311.2" width="2.8" height="6.8"/>
        <rect class="st12" x="497.9" y="311.2" width="2.8" height="6.8"/>
        <rect class="st12" x="487.8" y="311.2" width="9" height="6.8"/>
        <polygon class="st15" points="467.2 318.5 465.2 318.5 466 315.1 468.3 315.1 468.3 317.9 467.2 318.5"/>
        <rect class="st15" x="469.5" y="315.1" width="2.8" height="2.8"/>
        <rect class="st15" x="473.5" y="315.1" width="2.8" height="2.8"/>
        <rect class="st15" x="477.5" y="315.1" width="9" height="2.8"/>
        <polygon class="st15" points="507 318.5 509 318.5 508.2 315.1 505.8 315.1 505.8 317.9 507 318.5"/>
        <rect class="st15" x="501.9" y="315.1" width="2.8" height="2.8"/>
        <rect class="st15" x="497.9" y="315.1" width="2.8" height="2.8"/>
        <rect class="st15" x="487.8" y="315.1" width="9" height="2.8"/>
        <polygon class="st2" points="472.4 308.9 466.2 308.9 465.1 310.1 473.6 310.1 472.4 308.9"/>
        <polygon class="st2" points="507.9 308.9 501.7 308.9 500.6 310.1 509.1 310.1 507.9 308.9"/>
        <rect class="st12" x="467.4" y="309.6" width="3.7" height=".3"/>
        <rect class="st12" x="503.3" y="309.6" width="3.7" height=".3"/>
      </g>
    </g>
  </g>
  <g>
    <rect class="st2" x="245" y="300.5" width="5.9" height="8.2"/>
    <rect class="st2" x="247.9" y="336.7" width="65.4" height="3.3"/>
    <rect class="st2" x="247.9" y="340" width="83.8" height="4.2"/>
    <rect class="st2" x="247.9" y="344.3" width="96.4" height="12.6"/>
    <rect class="st2" x="182.6" y="336.7" width="65.4" height="3.3"/>
    <rect class="st18" x="182.6" y="337.8" width="65.4" height="1.1"/>
    <rect class="st2" x="164.1" y="340" width="83.8" height="4.2"/>
    <rect class="st18" x="164.1" y="341.2" width="83.8" height=".8"/>
    <rect class="st2" x="151.5" y="344.3" width="96.4" height="12.6"/>
    <rect class="st20" x="245.8" y="272.2" width="4.2" height="4.2"/>
    <circle class="st20" cx="247.9" cy="272.3" r="2.9"/>
    <polygon class="st5" points="271 294.7 224.8 294.7 220.7 291.4 275.1 291.4 271 294.7"/>
    <polygon class="st8" points="271 294.7 237.3 294.7 222.2 291.4 275.1 291.4 271 294.7"/>
    <path class="st0" d="M269.2,288.9c-10.9-3.4-19.2-12.6-19.2-12.6h-4.3s-8.3,9-19.2,12.6l-9.3-1.2,3.3,4.2h54.3l3.3-4.2-9.3,1.2h.1Z"/>
    <path class="st4" d="M269.2,288.9c-10.9-3.4-19.2-12.6-19.2-12.6h-2.2l-8.4,15.5h35.6l3.3-4.2-9.3,1.2h0Z"/>
    <polygon class="st0" points="279.1 299.6 270.9 293.8 247.9 293.8 224.8 293.8 216.8 299.6 212 299 214.1 301.6 220.4 301.6 224.8 301.6 247.9 301.6 271 301.6 275.4 301.6 281.7 301.6 283.8 299 279.1 299.6"/>
    <polygon class="st5" points="275.1 304.9 220.7 304.9 216.5 301.6 279.4 301.6 275.1 304.9"/>
    <polygon class="st8" points="275.1 304.9 238.2 304.9 220.4 301.6 279.4 301.6 275.1 304.9"/>
    <rect class="st18" x="218.6" y="303.2" width="58.7" height="33.6"/>
    <polygon class="st3" points="259.4 336.7 229 336.7 229 306.4 259.4 336.7"/>
    <polygon class="st3" points="273.8 336.7 259 336.7 259 321.8 273.8 336.7"/>
    <polygon class="st3" points="253.7 303.2 250.2 303.2 250.2 308.6 245.3 308.6 249.4 312.7 253.7 312.7 253.7 303.2"/>
    <polygon class="st2" points="289 336.7 266.7 336.7 266.7 311.6 283.5 311.6 289 336.7"/>
    <rect class="st2" x="266.7" y="306.4" width="16.8" height="5.2"/>
    <polygon class="st2" points="206.8 336.7 229 336.7 229 311.6 212.3 311.6 206.8 336.7"/>
    <rect class="st2" x="212.3" y="306.4" width="16.8" height="5.2"/>
    <path class="st18" d="M236.7,336.7v-12.6c0-6.1,5.1-11.2,11.2-11.2s11.2,5.1,11.2,11.2v12.6h-22.4Z"/>
    <path class="st5" d="M247.9,315.7c-4.6,0-8.4,3.8-8.4,8.4v12.6h16.8v-12.6c0-4.6-3.8-8.4-8.4-8.4h0Z"/>
    <g>
      <rect class="st14" x="245" y="300.5" width="5.9" height="8.2"/>
      <rect class="st5" x="246.3" y="301.7" width="3.3" height="5.7"/>
    </g>
    <polygon class="st18" points="294 356.8 247.9 356.8 247.9 336.7 281.4 336.7 294 356.8"/>
    <polygon class="st3" points="280.6 356.8 260.5 356.8 260.5 336.7 280.6 356.8"/>
    <polygon class="st18" points="201.8 356.8 247.9 356.8 247.9 336.7 214.3 336.7 201.8 356.8"/>
    <polygon class="st3" points="214.3 336.8 201.8 356.8 234.3 356.8 214.3 336.8"/>
    <polygon class="st2" points="260.5 336.7 247.9 336.7 235.4 336.7 227 356.8 247.9 356.8 268.9 356.8 260.5 336.7"/>
    <polygon class="st4" points="279.1 299.6 271 293.8 271 293.8 270.9 293.8 247.9 293.8 224.8 293.8 232.6 301.6 247.9 301.6 247.9 301.6 281.7 301.6 283.8 299 279.1 299.6"/>
  </g>
  <g>
    <rect class="st1" x="53.9" y="318.1" width="56.4" height="18.5"/>
    <polygon class="st13" points="53.9 318.1 110.3 318.1 110.3 335.6 53.9 318.1"/>
    <circle class="st7" cx="82.1" cy="329.1" r="2.3"/>
    <rect class="st7" x="94.3" y="326.9" width="3.9" height="4.5"/>
    <rect class="st7" x="65.8" y="326.9" width="3.9" height="4.5"/>
    <path class="st12" d="M53.9,336.8v20.2h21.9v-9.6c0-2.8,2.8-5.6,6.1-5.6s6.1,2.8,6.1,5.6v9.6h21.9v-20.2h-56.4.2Z"/>
    <path class="st15" d="M82.1,339.6c-5.6,0-7.9,4.5-7.9,7.3v10.1h1.7v-9.6c0-2.8,2.8-5.6,6.1-5.6s6.1,2.8,6.1,5.6v9.6h1.7v-10.1c0-2.8-2.3-7.3-7.9-7.3h0Z"/>
    <path class="st20" d="M99.2,316.2h-34s-2.3,2.5-12.4,1.1c0,0,6.5,2.8,17.4,2.8h23.9c11,0,17.4-2.8,17.4-2.8-10.1,1.4-12.4-1.1-12.4-1.1h0Z"/>
    <g>
      <polygon class="st20" points="90.1 311.7 82.2 312.9 74.3 311.7 73.1 320.1 82.2 320.1 91.2 320.1 90.1 311.7"/>
      <polygon class="st17" points="90.1 311.7 73.1 320.1 82.2 320.1 91.2 320.1 90.1 311.7"/>
      <path class="st21" d="M82.2,312.3c-8.1,0-10.8-5.6-10.8-5.6l2.8,5.3s4.5,1.1,7.9,1.1,7.9-1.1,7.9-1.1l2.8-5.3s-2.6,5.6-10.8,5.6h.2Z"/>
    </g>
    <g>
      <polygon class="st20" points="98.5 313.4 82.2 315.7 65.8 313.4 63.9 319.3 70 320.1 82.2 320.1 94.3 320.1 100.5 319.3 98.5 313.4"/>
      <polygon class="st17" points="98.5 313.4 70 320.1 82.2 320.1 94.3 320.1 100.5 319.3 98.5 313.4"/>
      <path class="st21" d="M82.2,315.1c-15.7,0-19.7-6.1-19.7-6.1l3.3,4.7s5.6,2.3,16.4,2.3,16.4-2.3,16.4-2.3l3.3-4.7s-4.1,6.1-19.7,6.1h0Z"/>
    </g>
    <path class="st21" d="M52.8,317.3s4.7,2.8,15.7,2.8h27.2c11,0,15.7-2.8,15.7-2.8,0,0-9.3,1.7-29.5,1.7s-29.3-1.7-29.3-1.7h.1Z"/>
  </g>
  <g>
    <g>
      <polygon class="st16" points="103.4 352.7 110.4 320.6 117.5 352.7 103.4 352.7"/>
      <polygon class="st9" points="113.9 346.2 111.1 348.4 111 344.7 111 344.7 113.1 342.5 110.9 344.1 110.7 339 111.8 337.8 110.7 338.7 110.5 334.6 110.2 341.3 108.1 339.6 110.2 341.8 109.9 345.4 106.9 343 109.9 346.3 109.8 349.1 106.1 346.2 109.7 350.5 109.4 357.2 110.5 357.2 110.5 357.2 111.6 357.2 111.1 349.6 113.9 346.2"/>
    </g>
    <g>
      <polygon class="st16" points="150.2 352.7 157.2 320.6 164.3 352.7 150.2 352.7"/>
      <polygon class="st9" points="160.7 346.2 157.9 348.4 157.7 344.7 157.7 344.7 159.9 342.5 157.7 344.1 157.5 339 158.6 337.8 157.4 338.7 157.3 334.6 157 341.3 154.8 339.6 157 341.8 156.7 345.4 153.7 343 156.7 346.3 156.5 349.1 152.9 346.2 156.5 350.5 156.2 357.2 157.3 357.2 157.3 357.2 158.2 357.2 157.9 349.6 160.7 346.2"/>
    </g>
    <g>
      <polygon class="st16" points="167.6 352.7 174.6 320.6 181.7 352.7 167.6 352.7"/>
      <polygon class="st9" points="178.2 346.2 175.4 348.4 175.1 344.7 175.2 344.7 177.3 342.5 175.1 344.1 174.9 339 176 337.8 174.9 338.7 174.7 334.6 174.5 341.3 172.3 339.6 174.4 341.8 174.2 345.4 171.2 343 174.2 346.3 174.1 349.1 170.3 346.2 174.1 350.5 173.7 357.2 174.7 357.2 174.7 357.2 175.8 357.2 175.5 349.6 178.2 346.2"/>
    </g>
    <g>
      <polygon class="st16" points="194.6 352.7 201.7 320.6 208.7 352.7 194.6 352.7"/>
      <polygon class="st9" points="205.2 346.2 202.5 348.4 202.3 344.7 202.3 344.7 204.4 342.5 202.3 344.1 202 339 203.1 337.8 202 338.7 201.8 334.6 201.5 341.3 199.5 339.6 201.4 341.8 201.3 345.4 198.2 343 201.3 346.3 201.2 349.1 197.4 346.2 201.1 350.5 200.7 357.2 201.7 357.2 201.8 357.2 202.8 357.2 202.5 349.6 205.2 346.2"/>
    </g>
    <g>
      <polygon class="st16" points="345.7 352.7 338.6 320.6 331.6 352.7 345.7 352.7"/>
      <polygon class="st9" points="335.1 346.2 337.9 348.4 338 344.7 338 344.7 336 342.5 338.1 344.1 338.4 339 337.3 337.8 338.4 338.7 338.6 334.6 338.9 341.3 340.9 339.6 338.9 341.8 339 345.4 342.1 343 339.1 346.3 339.2 349.1 343 346.2 339.3 350.5 339.5 357.2 338.6 357.2 338.6 357.2 337.5 357.2 337.8 349.6 335.1 346.2"/>
    </g>
    <g>
      <polygon class="st16" points="319.2 352.7 312.2 320.6 305.1 352.7 319.2 352.7"/>
      <polygon class="st9" points="308.7 346.2 311.5 348.4 311.6 344.7 311.6 344.7 309.5 342.5 311.6 344.1 311.9 339 310.7 337.8 311.9 338.7 312 334.6 312.3 341.3 314.5 339.6 312.4 341.8 312.6 345.4 315.5 343 312.6 346.3 312.7 349.1 316.4 346.2 312.7 350.5 313.1 357.2 312.1 357.2 312 357.2 311 357.2 311.4 349.6 308.7 346.2"/>
    </g>
    <g>
      <polygon class="st16" points="290.5 352.7 283.4 320.6 276.4 352.7 290.5 352.7"/>
      <polygon class="st9" points="279.9 346.2 282.6 348.4 282.8 344.7 282.8 344.7 280.7 342.5 282.9 344.1 283.1 339 282.1 337.8 283.2 338.7 283.4 334.6 283.6 341.3 285.7 339.6 283.6 341.8 283.8 345.4 286.9 343 283.9 346.3 284 349.1 287.8 346.2 284 350.5 284.3 357.2 283.4 357.2 283.4 357.2 282.3 357.2 282.6 349.6 279.9 346.2"/>
    </g>
    <g>
      <polygon class="st16" points="398.1 352.7 405.2 320.6 412.2 352.7 398.1 352.7"/>
      <polygon class="st9" points="408.6 346.2 405.9 348.4 405.7 344.7 405.7 344.7 407.9 342.5 405.7 344.1 405.5 339 406.6 337.8 405.5 338.7 405.3 334.6 404.8 341.3 402.9 339.6 404.8 341.8 404.7 345.4 401.6 343 404.7 346.3 404.5 349.1 400.9 346.2 404.5 350.5 404.2 357.2 405.2 357.2 405.3 357.2 406.2 357.2 405.9 349.6 408.6 346.2"/>
    </g>
    <g>
      <polygon class="st16" points="415.6 352.7 422.6 320.6 429.7 352.7 415.6 352.7"/>
      <polygon class="st9" points="426.2 346.2 423.4 348.4 423.1 344.7 423.1 344.7 425.3 342.5 423.1 344.1 422.9 339 424 337.8 422.9 338.7 422.7 334.6 422.4 341.3 420.3 339.6 422.4 341.8 422.2 345.4 419.2 343 422.2 346.3 422.1 349.1 418.3 346.2 422 350.5 421.6 357.2 422.7 357.2 422.7 357.2 423.8 357.2 423.4 349.6 426.2 346.2"/>
    </g>
    <g>
      <polygon class="st16" points="436.4 352.7 443.5 320.6 450.6 352.7 436.4 352.7"/>
      <polygon class="st9" points="446.9 346.2 444.2 348.4 444 344.7 444 344.7 446.2 342.5 444 344.1 443.8 339 444.9 337.8 443.8 338.7 443.6 334.6 443.3 341.3 441.2 339.6 443.3 341.8 443 345.4 440 343 443 346.3 442.9 349.1 439.2 346.2 442.8 350.5 442.5 357.2 443.5 357.2 443.6 357.2 444.7 357.2 444.2 349.6 446.9 346.2"/>
    </g>
    <g>
      <polygon class="st16" points="368.3 352.7 375.3 320.6 382.3 352.7 368.3 352.7"/>
      <polygon class="st9" points="378.7 346.2 376 348.4 375.8 344.7 375.8 344.7 377.9 342.5 375.8 344.1 375.6 339 376.7 337.8 375.6 338.7 375.4 334.6 375 341.3 373 339.6 375 341.8 374.8 345.4 371.8 343 374.8 346.3 374.6 349.1 371 346.2 374.6 350.5 374.4 357.2 375.4 357.2 375.4 357.2 376.4 357.2 376 349.6 378.7 346.2"/>
    </g>
    <g>
      <polygon class="st16" points="608.3 352.7 601.2 320.6 594.2 352.7 608.3 352.7"/>
      <polygon class="st9" points="597.8 346.2 600.6 348.4 600.7 344.7 600.7 344.7 598.5 342.5 600.8 344.1 601 339 599.9 337.8 601 338.7 601.2 334.6 601.5 341.3 603.6 339.6 601.5 341.8 601.6 345.4 604.8 343 601.7 346.3 601.8 349.1 605.6 346.2 602 350.5 602.2 357.2 601.2 357.2 601.2 357.2 600.1 357.2 600.6 349.6 597.8 346.2"/>
    </g>
    <g>
      <polygon class="st16" points="656.7 352.7 649.7 320.6 642.7 352.7 656.7 352.7"/>
      <polygon class="st9" points="646.3 346.2 649 348.4 649.2 344.7 649.2 344.7 647 342.5 649.2 344.1 649.4 339 648.3 337.8 649.5 338.7 649.6 334.6 649.9 341.3 652 339.6 649.9 341.8 650.2 345.4 653.2 343 650.3 346.3 650.4 349.1 654 346.2 650.4 350.5 650.7 357.2 649.6 357.2 649.6 357.2 648.6 357.2 649 349.6 646.3 346.2"/>
    </g>
    <g>
      <polygon class="st16" points="567.2 352.7 560.1 320.6 553.1 352.7 567.2 352.7"/>
      <polygon class="st9" points="556.7 346.2 559.3 348.4 559.6 344.7 559.6 344.7 557.4 342.5 559.6 344.1 559.8 339 558.8 337.8 559.9 338.7 560.1 334.6 560.3 341.3 562.4 339.6 560.3 341.8 560.5 345.4 563.7 343 560.6 346.3 560.7 349.1 564.4 346.2 560.7 350.5 561.1 357.2 560.1 357.2 560 357.2 559 357.2 559.3 349.6 556.7 346.2"/>
    </g>
    <g>
      <polygon class="st16" points="538.4 352.7 531.4 320.6 524.3 352.7 538.4 352.7"/>
      <polygon class="st9" points="527.8 346.2 530.6 348.4 530.8 344.7 530.8 344.7 528.7 342.5 530.8 344.1 531.1 339 530 337.8 531.1 338.7 531.3 334.6 531.6 341.3 533.6 339.6 531.7 341.8 531.8 345.4 534.8 343 531.8 346.3 531.9 349.1 535.7 346.2 532 350.5 532.3 357.2 531.3 357.2 531.3 357.2 530.2 357.2 530.6 349.6 527.8 346.2"/>
    </g>
    <g>
      <polygon class="st16" points="45.9 352.7 52.9 320.6 60 352.7 45.9 352.7"/>
      <polygon class="st9" points="56.4 346.2 53.7 348.4 53.5 344.7 53.5 344.7 55.6 342.5 53.5 344.1 53.2 339 54.3 337.8 53.2 338.7 53 334.6 52.7 341.3 50.7 339.6 52.6 341.8 52.5 345.4 49.5 343 52.5 346.3 52.4 349.1 48.6 346.2 52.3 350.5 51.9 357.2 53 357.2 53 357.2 54.1 357.2 53.7 349.6 56.4 346.2"/>
    </g>
    <g>
      <polygon class="st16" points="31.7 352.7 38.8 320.6 45.9 352.7 31.7 352.7"/>
      <polygon class="st9" points="42.3 346.2 39.6 348.4 39.4 344.7 39.4 344.7 41.5 342.5 39.4 344.1 39.1 339 40.2 337.8 39.1 338.7 38.9 334.6 38.6 341.3 36.6 339.6 38.6 341.8 38.4 345.4 35.4 343 38.4 346.3 38.3 349.1 34.5 346.2 38.2 350.5 37.9 357.2 38.8 357.2 38.9 357.2 40 357.2 39.6 349.6 42.3 346.2"/>
    </g>
  </g>
  <rect class="st19" x="32.5" y="356.7" width="653.7" height="3.3"/>
</svg>